<?xml version="1.0" encoding="UTF-8" standalone="no"?>
<!-- Created with Inkscape (http://www.inkscape.org/) -->

<svg
   xmlns:dc="http://purl.org/dc/elements/1.1/"
   xmlns:cc="http://creativecommons.org/ns#"
   xmlns:rdf="http://www.w3.org/1999/02/22-rdf-syntax-ns#"
   xmlns:svg="http://www.w3.org/2000/svg"
   xmlns="http://www.w3.org/2000/svg"
   xmlns:sodipodi="http://sodipodi.sourceforge.net/DTD/sodipodi-0.dtd"
   xmlns:inkscape="http://www.inkscape.org/namespaces/inkscape"
   width="64"
   height="64"
   viewBox="0 0 16.933332 16.933333"
   version="1.1"
   id="svg8"
   sodipodi:docname="dibujo7.svg"
   inkscape:version="0.92.4 (fd57863, 2020-04-02)">
  <defs
     id="defs2">
    <marker
       inkscape:stockid="Arrow1Mend"
       orient="auto"
       refY="0"
       refX="0"
       id="Arrow1Mend"
       style="overflow:visible"
       inkscape:isstock="true">
      <path
         id="path898"
         d="M 0,0 5,-5 -12.5,0 5,5 Z"
         style="fill-rule:evenodd;stroke:#000000;stroke-width:1.00000003pt"
         transform="matrix(-0.4,0,0,-0.4,-4,0)"
         inkscape:connector-curvature="0" />
    </marker>
    <marker
       inkscape:stockid="Arrow1Mstart"
       orient="auto"
       refY="0"
       refX="0"
       id="marker1156"
       style="overflow:visible"
       inkscape:isstock="true">
      <path
         id="path895"
         d="M 0,0 5,-5 -12.5,0 5,5 Z"
         style="fill-rule:evenodd;stroke:#000000;stroke-width:1.00000003pt"
         transform="matrix(0.4,0,0,0.4,4,0)"
         inkscape:connector-curvature="0" />
    </marker>
    <marker
       inkscape:stockid="Arrow1Lend"
       orient="auto"
       refY="0"
       refX="0"
       id="Arrow1Lend"
       style="overflow:visible"
       inkscape:isstock="true">
      <path
         id="path892"
         d="M 0,0 5,-5 -12.5,0 5,5 Z"
         style="fill-rule:evenodd;stroke:#000000;stroke-width:1.00000003pt"
         transform="matrix(-0.8,0,0,-0.8,-10,0)"
         inkscape:connector-curvature="0" />
    </marker>
    <marker
       inkscape:stockid="Arrow1Lstart"
       orient="auto"
       refY="0"
       refX="0"
       id="Arrow1Lstart"
       style="overflow:visible"
       inkscape:isstock="true">
      <path
         id="path889"
         d="M 0,0 5,-5 -12.5,0 5,5 Z"
         style="fill-rule:evenodd;stroke:#000000;stroke-width:1.00000003pt"
         transform="matrix(0.8,0,0,0.8,10,0)"
         inkscape:connector-curvature="0" />
    </marker>
    <marker
       inkscape:stockid="Arrow1Mstart"
       orient="auto"
       refY="0"
       refX="0"
       id="Arrow1Mstart"
       style="overflow:visible"
       inkscape:isstock="true">
      <path
         id="path6494"
         d="M 0,0 5,-5 -12.5,0 5,5 Z"
         style="fill-rule:evenodd;stroke:#000000;stroke-width:1.00000003pt"
         transform="matrix(0.4,0,0,0.4,4,0)"
         inkscape:connector-curvature="0" />
    </marker>
    <clipPath
       clipPathUnits="userSpaceOnUse"
       id="clipPath920">
      <rect
         ry="23.691162"
         y="-101.27226"
         x="5.1199098"
         height="254.0228"
         width="253.43224"
         id="rect922"
         style="fill:#008bff;fill-opacity:1;fill-rule:nonzero;stroke:#ffffff;stroke-width:0;stroke-linecap:round;stroke-linejoin:round;stroke-miterlimit:4;stroke-dasharray:none;stroke-opacity:1;paint-order:markers stroke fill" />
    </clipPath>
    <clipPath
       clipPathUnits="userSpaceOnUse"
       id="clipPath928">
      <rect
         ry="23.691162"
         y="-101.27226"
         x="5.1199098"
         height="254.0228"
         width="253.43224"
         id="rect930"
         style="fill:#008bff;fill-opacity:1;fill-rule:nonzero;stroke:#ffffff;stroke-width:0;stroke-linecap:round;stroke-linejoin:round;stroke-miterlimit:4;stroke-dasharray:none;stroke-opacity:1;paint-order:markers stroke fill" />
    </clipPath>
    <clipPath
       clipPathUnits="userSpaceOnUse"
       id="clipPath936">
      <rect
         ry="23.691162"
         y="-101.27226"
         x="5.1199098"
         height="254.0228"
         width="253.43224"
         id="rect938"
         style="fill:#008bff;fill-opacity:1;fill-rule:nonzero;stroke:#ffffff;stroke-width:0;stroke-linecap:round;stroke-linejoin:round;stroke-miterlimit:4;stroke-dasharray:none;stroke-opacity:1;paint-order:markers stroke fill" />
    </clipPath>
    <clipPath
       clipPathUnits="userSpaceOnUse"
       id="clipPath944">
      <rect
         ry="23.691162"
         y="-101.27226"
         x="5.1199098"
         height="254.0228"
         width="253.43224"
         id="rect946"
         style="fill:#008bff;fill-opacity:1;fill-rule:nonzero;stroke:#ffffff;stroke-width:0;stroke-linecap:round;stroke-linejoin:round;stroke-miterlimit:4;stroke-dasharray:none;stroke-opacity:1;paint-order:markers stroke fill" />
    </clipPath>
    <clipPath
       clipPathUnits="userSpaceOnUse"
       id="clipPath952">
      <rect
         style="fill:#008bff;fill-opacity:1;fill-rule:nonzero;stroke:#ffffff;stroke-width:0;stroke-linecap:round;stroke-linejoin:round;stroke-miterlimit:4;stroke-dasharray:none;stroke-opacity:1;paint-order:markers stroke fill"
         id="rect954"
         width="253.43224"
         height="254.0228"
         x="-147.75745"
         y="-234.90796"
         ry="23.691162" />
    </clipPath>
  </defs>
  <sodipodi:namedview
     id="base"
     pagecolor="#ffffff"
     bordercolor="#666666"
     borderopacity="1.0"
     inkscape:pageopacity="0.0"
     inkscape:pageshadow="2"
     inkscape:zoom="5.6568542"
     inkscape:cx="58.872192"
     inkscape:cy="19.891021"
     inkscape:document-units="mm"
     inkscape:current-layer="layer5"
     showgrid="false"
     units="px"
     inkscape:window-width="1366"
     inkscape:window-height="713"
     inkscape:window-x="0"
     inkscape:window-y="27"
     inkscape:window-maximized="1" />
  <metadata
     id="metadata5">
    <rdf:RDF>
      <cc:Work
         rdf:about="">
        <dc:format>image/svg+xml</dc:format>
        <dc:type
           rdf:resource="http://purl.org/dc/dcmitype/StillImage" />
        <dc:title></dc:title>
      </cc:Work>
    </rdf:RDF>
  </metadata>
  <g
     inkscape:groupmode="layer"
     id="layer3"
     inkscape:label="Capa 2"
     transform="translate(0,-141.81667)">
    <rect
       style="fill:#002b49;fill-opacity:1;fill-rule:nonzero;stroke:#ffffff;stroke-width:0;stroke-linecap:round;stroke-linejoin:round;stroke-miterlimit:4;stroke-dasharray:none;stroke-opacity:1;paint-order:markers stroke fill"
       id="rect6173"
       width="16.918102"
       height="16.894329"
       x="0.014584284"
       y="141.81911"
       transform="rotate(-3.528305e-4)"
       ry="1.5756315" />
    <rect
       ry="23.691162"
       transform="matrix(0.06675622,-4.1183993e-7,4.1262619e-7,0.06662901,-0.32628195,148.56678)"
       y="-8.8518476"
       x="98.557854"
       height="254.0228"
       width="253.43224"
       id="rect912"
       style="fill:#002b49;fill-opacity:1;fill-rule:nonzero;stroke:#ffffff;stroke-width:0;stroke-linecap:round;stroke-linejoin:round;stroke-miterlimit:4;stroke-dasharray:none;stroke-opacity:1;paint-order:markers stroke fill"
       clip-path="url(#clipPath920)" />
    <rect
       ry="23.285751"
       transform="matrix(0.06905957,-4.1838657e-7,4.2686337e-7,0.06768816,-0.33807706,148.405)"
       y="-8.8518524"
       x="-154.87439"
       height="254.0228"
       width="253.43224"
       id="rect924"
       style="fill:#6fad32;fill-opacity:1;fill-rule:nonzero;stroke:#ffffff;stroke-width:0;stroke-linecap:round;stroke-linejoin:round;stroke-miterlimit:4;stroke-dasharray:none;stroke-opacity:1;paint-order:markers stroke fill"
       clip-path="url(#clipPath928)" />
    <rect
       ry="23.691162"
       transform="matrix(0.06675622,-4.1183993e-7,4.1262619e-7,0.06662901,-0.32628195,148.56678)"
       y="-234.90796"
       x="105.6748"
       height="254.0228"
       width="253.43224"
       id="rect940"
       style="fill:#6fad32;fill-opacity:1;fill-rule:nonzero;stroke:#ffffff;stroke-width:0;stroke-linecap:round;stroke-linejoin:round;stroke-miterlimit:4;stroke-dasharray:none;stroke-opacity:1;paint-order:markers stroke fill"
       clip-path="url(#clipPath944)" />
  </g>
  <g
     inkscape:groupmode="layer"
     id="layer2"
     inkscape:label="Capa 5"
     transform="translate(0,-247.65)" />
  <g
     inkscape:label="Capa 1"
     inkscape:groupmode="layer"
     id="layer1"
     transform="translate(0,-280.06666)">
    <text
       xml:space="preserve"
       style="font-style:normal;font-weight:normal;font-size:10.58333302px;line-height:1.25;font-family:sans-serif;letter-spacing:0px;word-spacing:0px;fill:#000000;fill-opacity:1;stroke:none;stroke-width:0.26458332"
       x="210.53275"
       y="166.59821"
       id="text6212"><tspan
         sodipodi:role="line"
         id="tspan6210"
         x="210.53275"
         y="175.96198"
         style="stroke-width:0.26458332" /></text>
  </g>
  <g
     inkscape:groupmode="layer"
     id="layer4"
     inkscape:label="Capa 3"
     transform="translate(0,-141.81667)" />
  <g
     inkscape:groupmode="layer"
     id="layer5"
     inkscape:label="Capa 4"
     transform="translate(0,-141.81667)">
    <ellipse
       style="fill:#ffffff;fill-opacity:0;fill-rule:nonzero;stroke:#ffffff;stroke-width:0;stroke-miterlimit:4;stroke-dasharray:none;stroke-opacity:1"
       id="path6486"
       cx="129.84045"
       cy="25.522718"
       rx="35.260868"
       ry="34.8363" />
    <path
       style="fill:#ffffff;fill-opacity:1;fill-rule:nonzero;stroke:#00000e;stroke-width:0.10583333;stroke-linecap:round;stroke-linejoin:round;stroke-miterlimit:4;stroke-dasharray:none;stroke-opacity:1;paint-order:markers stroke fill"
       d="m 7.4973354,157.49814 c -0.1948296,-0.0971 -0.3467804,-0.26417 -0.4130856,-0.45402 -0.022078,-0.0634 -0.089488,-0.35502 -0.1497649,-0.64832 l -0.1095952,-0.53333 -0.2319431,-0.0818 c -0.1275735,-0.0449 -0.3487827,-0.13215 -0.4915863,-0.19377 l -0.2596385,-0.11198 -0.1328802,0.1065 c -0.7781101,0.62388 -1.0168815,0.75131 -1.3397566,0.71497 -0.2967259,-0.0333 -0.3693411,-0.0872 -1.1727504,-0.87092 -0.4845216,-0.47258 -0.5547534,-0.60676 -0.5152223,-0.98424 0.020536,-0.19609 0.052021,-0.25911 0.3613936,-0.7236 0.1863939,-0.27984 0.3388977,-0.5209 0.3388977,-0.53569 0,-0.0147 -0.062766,-0.1477 -0.1394685,-0.2953 -0.076709,-0.14762 -0.1666799,-0.35196 -0.1999393,-0.45407 -0.033265,-0.10216 -0.0794,-0.20135 -0.1025355,-0.22051 -0.023146,-0.0191 -0.1700193,-0.0518 -0.3264024,-0.0726 -0.1563792,-0.0209 -0.401731,-0.0534 -0.5452203,-0.0727 -0.3363899,-0.045 -0.5277393,-0.13176 -0.6922244,-0.31402 -0.203617,-0.22563 -0.2376696,-0.40176 -0.2497277,-1.29163 l -0.010415,-0.76804 0.1070529,-0.20819 c 0.1710056,-0.33255 0.3161023,-0.41069 1.0222277,-0.55048 l 0.5850597,-0.11577 0.1465669,-0.41524 c 0.080613,-0.2284 0.1673745,-0.46544 0.1928021,-0.52676 0.045625,-0.11005 0.041622,-0.11773 -0.3053378,-0.58501 -0.1933637,-0.26042 -0.3720935,-0.53078 -0.3971738,-0.60081 -0.071351,-0.19919 -0.058485,-0.46104 0.032023,-0.65144 0.1107877,-0.23312 1.0982417,-1.28776 1.290272,-1.37807 0.3349413,-0.1575 0.6369273,-0.12368 0.9781229,0.10956 0.091608,0.0625 0.3014933,0.20512 0.4664111,0.31668 l 0.299847,0.20282 0.2532518,-0.13575 c 0.1392883,-0.0747 0.3495967,-0.17081 0.4673537,-0.21368 0.1177569,-0.0428 0.2282051,-0.0907 0.2454372,-0.10663 0.017235,-0.0159 0.070132,-0.29661 0.1175509,-0.62413 0.069169,-0.47772 0.1046398,-0.62685 0.179394,-0.75416 0.1041132,-0.17732 0.3630532,-0.38277 0.5272934,-0.41837 0.2001751,-0.0433 1.5307754,-0.0765 1.6948835,-0.0421 0.2167171,0.0454 0.4032482,0.16965 0.5290465,0.35256 0.086032,0.1251 0.1257941,0.2602 0.221321,0.75199 0.064052,0.32971 0.1343927,0.6039 0.1563195,0.60929 0.1729063,0.0425 0.5144833,0.16215 0.7460793,0.26135 l 0.278003,0.11905 0.476085,-0.35842 c 0.261846,-0.19713 0.546214,-0.38365 0.631934,-0.41451 0.198472,-0.0715 0.490927,-0.0427 0.672731,0.0661 0.07285,0.0435 0.375473,0.30997 0.67251,0.59195 0.895355,0.85001 0.921396,1.01453 0.306707,1.93783 l -0.327319,0.49167 0.150519,0.30968 c 0.08278,0.17034 0.180985,0.39584 0.218217,0.50111 0.03726,0.10529 0.08389,0.19583 0.103667,0.20122 0.01976,0.005 0.260766,0.0366 0.535533,0.0695 0.572254,0.0684 0.731167,0.11551 0.922983,0.27329 0.238986,0.19662 0.277183,0.33948 0.31278,1.16999 0.04085,0.9529 0.01092,1.13291 -0.229504,1.38315 -0.174622,0.18169 -0.281444,0.22392 -0.911534,0.36037 l -0.583272,0.12631 -0.08011,0.24932 c -0.04407,0.13712 -0.130856,0.36719 -0.192866,0.51127 l -0.112746,0.26197 0.113801,0.14343 c 0.122536,0.15442 0.160167,0.20581 0.451553,0.61656 0.228415,0.32198 0.281462,0.55573 0.19341,0.85221 -0.06839,0.23029 -0.114331,0.28624 -0.933687,1.13712 -0.282983,0.29385 -0.535836,0.44793 -0.734988,0.44786 -0.277235,-1.1e-4 -0.398591,-0.052 -0.886864,-0.37921 -0.272804,-0.1828 -0.51275,-0.33237 -0.533206,-0.33237 -0.02044,0 -0.118782,0.0451 -0.218499,0.10041 -0.09971,0.0552 -0.311567,0.15339 -0.47078,0.21816 l -0.289476,0.1177 -0.03857,0.23595 c -0.02122,0.12977 -0.05709,0.37218 -0.07976,0.53867 -0.05597,0.41133 -0.1238569,0.5862 -0.2974603,0.76618 -0.2237382,0.23195 -0.3846187,0.26691 -1.3247151,0.28795 l -0.7850418,0.0176 z m 1.557627,-0.72521 0.1960988,-0.0232 0.040769,-0.24929 c 0.038019,-0.23276 0.089097,-0.58892 0.1418263,-0.9893 0.027861,-0.21162 0.141329,-0.38387 0.2816462,-0.42759 0.3104043,-0.0968 0.7891213,-0.30574 1.0998223,-0.48022 0.317696,-0.17842 0.361186,-0.19353 0.465159,-0.1617 0.06308,0.0195 0.359871,0.19881 0.65953,0.39884 0.299658,0.20004 0.564603,0.37127 0.588767,0.38053 0.02418,0.009 0.07549,-0.0129 0.114045,-0.049 0.128667,-0.12064 0.854781,-0.90314 0.881181,-0.94968 0.01636,-0.0289 -0.120387,-0.24198 -0.369315,-0.57542 -0.41384,-0.55431 -0.495276,-0.68303 -0.495276,-0.78277 0,-0.0332 0.0744,-0.2223 0.165349,-0.42025 0.15147,-0.32971 0.405589,-1.04957 0.405589,-1.14894 0,-0.0229 0.0457,-0.08 0.101561,-0.12692 0.08038,-0.0675 0.242183,-0.11358 0.776121,-0.22124 0.371012,-0.0748 0.697013,-0.15395 0.724442,-0.17592 0.04106,-0.0328 0.04575,-0.15914 0.02658,-0.71525 -0.01281,-0.3714 -0.03529,-0.687 -0.04987,-0.7013 -0.01462,-0.0144 -0.211226,-0.051 -0.436928,-0.0816 -0.927288,-0.1256 -1.006719,-0.14056 -1.088669,-0.2049 -0.05198,-0.0407 -0.119854,-0.17568 -0.180561,-0.35883 -0.110005,-0.33187 -0.283711,-0.71755 -0.448413,-0.99559 -0.185259,-0.31275 -0.170928,-0.36696 0.27145,-1.02701 0.210875,-0.31465 0.390783,-0.6002 0.399789,-0.63459 0.0117,-0.0445 -0.127044,-0.19691 -0.484851,-0.53223 -0.27568,-0.25833 -0.51361,-0.4693 -0.52874,-0.46882 -0.01514,4.2e-4 -0.125862,0.0767 -0.246075,0.1692 -1.080864,0.83213 -1.013178,0.80549 -1.470625,0.57913 -0.294116,-0.14552 -0.8070654,-0.32966 -1.0315455,-0.37027 -0.1522686,-0.0275 -0.2868027,-0.11807 -0.3459281,-0.23287 -0.026276,-0.051 -0.1008155,-0.38625 -0.1656853,-0.7451 -0.08473,-0.46868 -0.1335826,-0.66013 -0.1734608,-0.67979 -0.07868,-0.0387 -1.3474979,0.007 -1.3880407,0.05 -0.018434,0.0196 -0.067712,0.28404 -0.1094838,0.58767 -0.1064357,0.77369 -0.1367804,0.90537 -0.2276862,0.98802 -0.043346,0.0394 -0.2367655,0.13011 -0.4298206,0.20155 -0.1930551,0.0715 -0.4580091,0.1887 -0.5887843,0.26058 -0.583971,0.32095 -0.6171958,0.33199 -0.766455,0.2546 -0.042862,-0.0223 -0.3107775,-0.19577 -0.5953558,-0.38564 -0.2845781,-0.18987 -0.5381905,-0.35737 -0.5635794,-0.37223 -0.030866,-0.018 -0.1451223,0.0775 -0.3443851,0.28769 -0.531468,0.56084 -0.6601944,0.7058 -0.6611674,0.74457 -4.286e-4,0.021 0.1750645,0.2733 0.3902036,0.56075 0.2151396,0.28748 0.407835,0.55376 0.4282093,0.59175 0.07129,0.13295 0.037805,0.31192 -0.1211779,0.64776 -0.087026,0.18382 -0.2099872,0.51052 -0.2732526,0.72599 -0.124766,0.42493 -0.1809197,0.52851 -0.3178893,0.5863 -0.049065,0.0208 -0.3762811,0.093 -0.7271515,0.16058 -0.3508701,0.0676 -0.647935,0.133 -0.6601524,0.14529 -0.034675,0.0349 -0.00131,1.34404 0.03622,1.41397 0.021734,0.0406 0.075589,0.0623 0.1551916,0.0623 0.06703,0 0.1989449,0.0146 0.2931343,0.0325 0.094189,0.0179 0.3157758,0.051 0.4924094,0.0734 0.6271494,0.08 0.6316719,0.0832 0.7980301,0.57383 0.1040274,0.30679 0.2383126,0.59324 0.4311236,0.91962 0.1818632,0.30785 0.1673188,0.36101 -0.2835323,1.03615 -0.2158424,0.32321 -0.3924587,0.61305 -0.3924801,0.64408 -1.73e-5,0.0311 0.052146,0.10208 0.1159309,0.15759 0.063786,0.0556 0.2807888,0.2586 0.4822283,0.45108 0.2014443,0.19248 0.3896901,0.34996 0.418333,0.34996 0.028634,0 0.2455868,-0.14826 0.4821082,-0.32946 0.6278999,-0.48101 0.7478469,-0.56094 0.8418565,-0.56094 0.046551,0 0.2180457,0.0624 0.3811161,0.13863 0.2912955,0.13621 0.6261162,0.25779 1.0361246,0.37626 0.1582562,0.0458 0.2226835,0.0853 0.2727387,0.16743 0.036179,0.0595 0.1237151,0.4036 0.1954642,0.76866 0.071457,0.36361 0.1383491,0.67471 0.1486499,0.69135 0.021473,0.0347 0.9341506,0.0347 1.2276019,0 z"
       id="path5642"
       inkscape:connector-curvature="0" />
    <path
       style="fill:#ffffff;fill-opacity:1;fill-rule:nonzero;stroke:none;stroke-width:0.21091536;stroke-linecap:round;stroke-linejoin:round;stroke-miterlimit:4;stroke-dasharray:none;stroke-opacity:1;paint-order:markers stroke fill"
       d="m 200.27396,790.40579 c 0,-0.004 -0.005,-0.006 -0.0176,-0.006 -0.0137,0 -0.0176,-0.001 -0.0176,-0.006 0,-0.005 -0.003,-0.006 -0.0195,-0.004 -0.0178,0.002 -0.0195,0.002 -0.0195,-0.006 0,-0.007 -0.002,-0.008 -0.0195,-0.005 -0.0178,0.002 -0.0195,0.002 -0.0195,-0.005 0,-0.007 -0.002,-0.008 -0.0254,-0.006 -0.0217,0.002 -0.0254,10e-4 -0.0254,-0.004 0,-0.005 -0.004,-0.006 -0.0254,-0.006 -0.02,0 -0.0254,-10e-4 -0.0254,-0.006 0,-0.005 -0.005,-0.006 -0.0254,-0.006 -0.02,0 -0.0254,-10e-4 -0.0254,-0.006 0,-0.004 -0.005,-0.006 -0.0176,-0.006 -0.013,0 -0.0176,-0.002 -0.0176,-0.006 0,-0.003 -0.003,-0.006 -0.008,-0.006 -0.004,0 -0.008,-0.003 -0.008,-0.006 0,-0.003 -0.003,-0.006 -0.006,-0.006 -0.003,0 -0.006,-0.003 -0.006,-0.006 0,-0.003 -0.003,-0.006 -0.006,-0.006 -0.003,0 -0.006,-0.003 -0.006,-0.006 0,-0.003 -0.003,-0.006 -0.008,-0.006 -0.005,0 -0.008,-0.003 -0.008,-0.008 0,-0.005 -0.002,-0.007 -0.006,-0.005 -0.004,0.002 -0.006,-2.7e-4 -0.006,-0.006 0,-0.005 -0.003,-0.008 -0.006,-0.008 -0.003,0 -0.006,-0.003 -0.006,-0.006 0,-0.003 -0.003,-0.006 -0.006,-0.006 -0.003,0 -0.007,-0.003 -0.008,-0.006 -0.001,-0.003 -0.005,-0.006 -0.008,-0.006 -0.003,0 -0.005,-0.003 -0.005,-0.006 0,-0.003 -0.003,-0.006 -0.006,-0.006 -0.003,0 -0.006,-0.003 -0.006,-0.006 0,-0.003 -0.003,-0.006 -0.006,-0.006 -0.003,0 -0.006,-0.003 -0.006,-0.006 0,-0.003 -0.003,-0.006 -0.008,-0.006 -0.004,0 -0.008,-0.003 -0.008,-0.006 0,-0.003 -0.003,-0.006 -0.006,-0.006 -0.003,0 -0.006,-0.003 -0.006,-0.008 0,-0.004 -0.003,-0.008 -0.006,-0.008 -0.003,0 -0.006,-0.003 -0.006,-0.006 0,-0.003 -0.003,-0.006 -0.008,-0.006 -0.004,0 -0.008,-0.003 -0.008,-0.006 0,-0.003 -0.003,-0.006 -0.006,-0.006 -0.003,0 -0.006,-0.003 -0.006,-0.006 0,-0.003 -0.003,-0.006 -0.006,-0.006 -0.003,0 -0.006,-0.003 -0.006,-0.006 0,-0.004 -0.004,-0.006 -0.0137,-0.006 -0.01,0 -0.0137,-0.002 -0.0137,-0.006 0,-0.003 -0.003,-0.006 -0.006,-0.006 -0.003,0 -0.006,-0.003 -0.006,-0.006 0,-0.003 -0.003,-0.006 -0.006,-0.006 -0.003,0 -0.006,-0.003 -0.006,-0.006 0,-0.003 -0.003,-0.006 -0.008,-0.006 -0.005,0 -0.008,-0.003 -0.008,-0.008 0,-0.004 -0.003,-0.008 -0.006,-0.008 -0.003,0 -0.006,-0.003 -0.006,-0.006 0,-0.003 -0.003,-0.006 -0.006,-0.006 -0.003,0 -0.006,-0.003 -0.006,-0.006 0,-0.003 -0.003,-0.006 -0.006,-0.006 -0.003,0 -0.007,-0.003 -0.008,-0.006 -0.001,-0.003 -0.005,-0.006 -0.008,-0.006 -0.003,0 -0.005,-0.003 -0.005,-0.006 0,-0.003 -0.003,-0.006 -0.006,-0.006 -0.003,0 -0.006,-0.003 -0.006,-0.006 0,-0.003 -0.003,-0.006 -0.006,-0.006 -0.003,0 -0.006,-0.003 -0.006,-0.006 0,-0.003 -0.003,-0.006 -0.008,-0.006 -0.005,0 -0.008,-0.003 -0.008,-0.008 0,-0.006 -0.002,-0.008 -0.006,-0.006 -0.004,0.002 -0.006,-2.1e-4 -0.006,-0.005 0,-0.004 -0.003,-0.008 -0.006,-0.008 -0.003,0 -0.006,-0.003 -0.006,-0.006 0,-0.003 -0.003,-0.006 -0.008,-0.006 -0.007,0 -0.008,-0.003 -0.008,-0.0254 0,-0.02 -0.001,-0.0254 -0.006,-0.0254 -0.005,0 -0.006,-0.005 -0.006,-0.0257 0,-0.0239 -5.4e-4,-0.0255 -0.008,-0.0232 -0.007,0.002 -0.008,7e-4 -0.008,-0.0173 0,-0.015 -0.001,-0.0198 -0.006,-0.0198 -0.005,0 -0.006,-0.005 -0.006,-0.0254 0,-0.0228 -8e-4,-0.0254 -0.008,-0.0254 -0.007,0 -0.008,-0.003 -0.008,-0.0195 0,-0.0148 -10e-4,-0.0195 -0.006,-0.0195 -0.004,0 -0.006,-0.005 -0.006,-0.0176 0,-0.015 -10e-4,-0.0176 -0.008,-0.0176 -0.006,0 -0.008,-0.003 -0.008,-0.0137 0,-0.01 -0.002,-0.0137 -0.006,-0.0137 -0.004,0 -0.006,-0.005 -0.006,-0.0176 0,-0.0128 -0.002,-0.0176 -0.006,-0.0176 -0.004,0 -0.007,-0.006 -0.008,-0.0195 -0.002,-0.0127 -0.004,-0.0195 -0.008,-0.0195 -0.003,0 -0.005,-0.004 -0.005,-0.0117 0,-0.008 -0.002,-0.0117 -0.006,-0.0117 -0.004,0 -0.006,-0.004 -0.006,-0.0141 0,-0.0122 -0.001,-0.0138 -0.008,-0.0121 -0.007,0.002 -0.008,1.2e-4 -0.008,-0.0171 0,-0.0144 -0.001,-0.0192 -0.006,-0.0192 -0.004,0 -0.006,-0.004 -0.006,-0.0137 0,-0.0111 -0.001,-0.0137 -0.008,-0.0137 -0.006,0 -0.008,-0.003 -0.008,-0.0117 0,-0.008 -0.002,-0.0117 -0.006,-0.0117 -0.004,0 -0.006,-0.004 -0.006,-0.0117 0,-0.008 -0.002,-0.0117 -0.006,-0.0117 -0.003,0 -0.006,-0.003 -0.006,-0.006 0,-0.003 -0.003,-0.006 -0.008,-0.006 -0.006,0 -0.008,-0.003 -0.008,-0.0137 0,-0.01 -0.002,-0.0137 -0.006,-0.0137 -0.004,0 -0.006,-0.004 -0.006,-0.0117 0,-0.008 -0.002,-0.0117 -0.006,-0.0117 -0.003,0 -0.006,-0.003 -0.006,-0.006 0,-0.003 -0.003,-0.006 -0.008,-0.006 -0.006,0 -0.008,-0.003 -0.008,-0.0137 0,-0.01 -0.002,-0.0137 -0.006,-0.0137 -0.003,0 -0.006,-0.003 -0.006,-0.006 0,-0.003 -0.003,-0.006 -0.006,-0.006 -0.004,0 -0.006,-0.004 -0.006,-0.0117 0,-0.009 -0.002,-0.0117 -0.008,-0.0117 -0.004,0 -0.008,-0.003 -0.008,-0.006 0,-0.003 -0.003,-0.006 -0.006,-0.006 -0.004,0 -0.006,-0.004 -0.006,-0.0137 0,-0.01 -0.002,-0.0137 -0.006,-0.0137 -0.003,0 -0.006,-0.003 -0.006,-0.006 0,-0.003 -0.003,-0.006 -0.008,-0.006 -0.004,0 -0.008,-0.003 -0.008,-0.006 0,-0.003 -0.003,-0.006 -0.006,-0.006 -0.003,0 -0.006,-0.003 -0.006,-0.006 0,-0.003 -0.003,-0.006 -0.006,-0.006 -0.003,0 -0.006,-0.003 -0.006,-0.006 0,-0.003 -0.003,-0.006 -0.008,-0.006 -0.006,0 -0.008,-0.003 -0.008,-0.0137 0,-0.01 -0.002,-0.0137 -0.006,-0.0137 -0.003,0 -0.006,-0.003 -0.006,-0.006 0,-0.003 -0.003,-0.006 -0.006,-0.006 -0.003,0 -0.006,-0.003 -0.006,-0.006 0,-0.003 -0.003,-0.006 -0.008,-0.006 -0.004,0 -0.008,-0.003 -0.008,-0.006 0,-0.003 -0.003,-0.006 -0.006,-0.006 -0.003,0 -0.006,-0.003 -0.006,-0.006 0,-0.003 -0.003,-0.006 -0.006,-0.006 -0.003,0 -0.006,-0.003 -0.006,-0.006 0,-0.003 -0.003,-0.006 -0.006,-0.006 -0.003,0 -0.006,-0.003 -0.006,-0.006 0,-0.004 -0.004,-0.006 -0.0137,-0.006 -0.01,0 -0.0137,-0.002 -0.0137,-0.006 0,-0.003 -0.003,-0.006 -0.006,-0.006 -0.003,0 -0.006,-0.003 -0.006,-0.008 0,-0.005 -0.003,-0.008 -0.008,-0.008 -0.004,0 -0.008,-0.003 -0.008,-0.006 0,-0.003 -0.003,-0.006 -0.006,-0.006 -0.003,0 -0.006,-0.003 -0.006,-0.006 0,-0.003 -0.003,-0.006 -0.006,-0.006 -0.003,0 -0.006,-0.003 -0.006,-0.006 0,-0.004 -0.004,-0.006 -0.0137,-0.006 -0.01,0 -0.0137,-0.002 -0.0137,-0.006 0,-0.003 -0.003,-0.006 -0.006,-0.006 -0.003,0 -0.006,-0.003 -0.006,-0.006 0,-0.004 -0.004,-0.006 -0.0113,-0.006 -0.006,0 -0.0123,-0.003 -0.0136,-0.006 -0.001,-0.003 -0.005,-0.006 -0.008,-0.006 -0.003,0 -0.006,-0.003 -0.006,-0.006 0,-0.004 -0.004,-0.006 -0.0117,-0.006 -0.008,0 -0.0117,-0.002 -0.0117,-0.006 0,-0.003 -0.003,-0.006 -0.008,-0.006 -0.005,0 -0.008,-0.003 -0.008,-0.008 0,-0.006 -0.002,-0.007 -0.0117,-0.005 -0.0101,0.002 -0.0117,0.001 -0.0117,-0.006 0,-0.008 -0.001,-0.008 -0.0137,-0.006 -0.0121,0.002 -0.0137,0.002 -0.0137,-0.006 0,-0.005 -0.002,-0.008 -0.006,-0.008 -0.003,0 -0.006,-0.003 -0.006,-0.006 0,-0.004 -0.004,-0.006 -0.0117,-0.006 -0.008,0 -0.0117,-0.002 -0.0117,-0.006 0,-0.004 -0.004,-0.006 -0.0137,-0.006 -0.01,0 -0.0137,-0.002 -0.0137,-0.006 0,-0.004 -0.004,-0.006 -0.0113,-0.006 -0.006,0 -0.0123,-0.003 -0.0136,-0.006 -0.002,-0.004 -0.008,-0.006 -0.0199,-0.006 -0.0131,0 -0.0177,-0.002 -0.0177,-0.006 0,-0.004 -0.004,-0.006 -0.0137,-0.006 -0.01,0 -0.0137,-0.002 -0.0137,-0.006 0,-0.004 -0.004,-0.006 -0.0117,-0.006 -0.008,0 -0.0117,-0.002 -0.0117,-0.006 0,-0.004 -0.005,-0.006 -0.0195,-0.006 -0.0147,0 -0.0195,-10e-4 -0.0195,-0.006 0,-0.004 -0.005,-0.006 -0.0195,-0.006 -0.0148,0 -0.0195,-10e-4 -0.0195,-0.006 0,-0.004 -0.004,-0.006 -0.0117,-0.006 -0.008,0 -0.0117,-0.002 -0.0117,-0.006 0,-0.005 -0.004,-0.006 -0.0195,-0.005 -0.017,10e-4 -0.0195,4e-4 -0.0195,-0.006 0,-0.007 -0.002,-0.007 -0.0195,-0.005 -0.0178,0.002 -0.0195,0.002 -0.0195,-0.005 0,-0.007 -0.002,-0.008 -0.0254,-0.005 -0.0219,0.002 -0.0254,10e-4 -0.0254,-0.004 0,-0.005 -0.004,-0.006 -0.0176,-0.006 -0.013,0 -0.0176,-0.002 -0.0176,-0.006 0,-0.005 -0.005,-0.006 -0.0254,-0.006 -0.02,0 -0.0254,-10e-4 -0.0254,-0.006 0,-0.005 -0.005,-0.006 -0.0254,-0.006 -0.02,0 -0.0254,-10e-4 -0.0254,-0.006 0,-0.003 -0.003,-0.006 -0.008,-0.006 -0.004,0 -0.008,-0.003 -0.008,-0.006 0,-0.003 -0.003,-0.006 -0.006,-0.006 -0.003,0 -0.006,-0.003 -0.006,-0.006 0,-0.003 -0.003,-0.006 -0.006,-0.006 -0.003,0 -0.006,-0.003 -0.006,-0.006 0,-0.003 -0.003,-0.006 -0.006,-0.006 -0.003,0 -0.007,-0.004 -0.008,-0.008 -0.001,-0.004 -0.005,-0.008 -0.008,-0.008 -0.003,0 -0.006,-0.003 -0.006,-0.006 0,-0.003 -0.003,-0.006 -0.006,-0.006 -0.003,0 -0.006,-0.003 -0.006,-0.006 0,-0.003 -0.003,-0.006 -0.006,-0.006 -0.003,0 -0.006,-0.003 -0.006,-0.006 0,-0.003 -0.003,-0.006 -0.008,-0.006 -0.004,0 -0.008,-0.003 -0.008,-0.006 0,-0.003 -0.003,-0.006 -0.006,-0.006 -0.003,0 -0.006,-0.003 -0.006,-0.006 0,-0.003 -0.003,-0.006 -0.006,-0.006 -0.003,0 -0.006,-0.003 -0.006,-0.006 0,-0.003 -0.003,-0.006 -0.008,-0.006 -0.005,0 -0.008,-0.003 -0.008,-0.008 0,-0.005 -0.002,-0.007 -0.006,-0.005 -0.004,0.002 -0.006,-2.7e-4 -0.006,-0.006 0,-0.005 -0.003,-0.008 -0.006,-0.008 -0.004,0 -0.006,-0.004 -0.006,-0.0117 0,-0.009 -0.002,-0.0117 -0.008,-0.0117 -0.004,0 -0.008,-0.003 -0.008,-0.006 0,-0.003 -0.003,-0.006 -0.006,-0.006 -0.003,0 -0.006,-0.003 -0.006,-0.006 0,-0.003 -0.003,-0.006 -0.006,-0.006 -0.003,0 -0.006,-0.003 -0.006,-0.006 0,-0.003 -0.003,-0.006 -0.006,-0.006 -0.003,0 -0.006,-0.003 -0.006,-0.006 0,-0.003 -0.004,-0.007 -0.008,-0.008 -0.004,-10e-4 -0.008,-0.004 -0.008,-0.007 0,-0.003 -0.003,-0.005 -0.006,-0.005 -0.003,0 -0.006,-0.003 -0.006,-0.006 0,-0.003 -0.003,-0.006 -0.006,-0.006 -0.003,0 -0.006,-0.003 -0.006,-0.006 0,-0.003 -0.003,-0.006 -0.008,-0.006 -0.004,0 -0.008,-0.003 -0.008,-0.006 0,-0.003 -0.003,-0.006 -0.006,-0.006 -0.003,0 -0.006,-0.003 -0.006,-0.006 0,-0.003 -0.003,-0.006 -0.006,-0.006 -0.003,0 -0.006,-0.003 -0.006,-0.006 0,-0.003 -0.003,-0.006 -0.008,-0.006 -0.005,0 -0.008,-0.003 -0.008,-0.008 0,-0.006 -0.002,-0.008 -0.006,-0.006 -0.004,0.002 -0.006,-2.1e-4 -0.006,-0.005 0,-0.004 -0.003,-0.008 -0.006,-0.008 -0.003,0 -0.006,-0.003 -0.006,-0.006 0,-0.003 -0.003,-0.006 -0.006,-0.006 -0.003,0 -0.006,-0.003 -0.006,-0.006 0,-0.003 -0.003,-0.006 -0.008,-0.006 -0.004,0 -0.008,-0.003 -0.008,-0.006 0,-0.003 -0.003,-0.006 -0.006,-0.006 -0.003,0 -0.006,-0.003 -0.006,-0.006 0,-0.003 -0.003,-0.006 -0.006,-0.006 -0.004,0 -0.006,-0.004 -0.006,-0.0134 0,-0.0172 -0.003,-0.0257 -0.0102,-0.0257 -0.004,0 -0.005,-0.006 -0.005,-0.0254 0,-0.019 -0.001,-0.0254 -0.005,-0.0254 -0.004,0 -0.006,-0.008 -0.008,-0.0252 -0.002,-0.0195 -0.004,-0.0247 -0.008,-0.023 -0.004,0.002 -0.006,-0.003 -0.006,-0.0237 0,-0.0201 -0.001,-0.0258 -0.006,-0.0258 -0.004,0 -0.007,-0.006 -0.008,-0.0195 -0.002,-0.0127 -0.004,-0.0195 -0.008,-0.0195 -0.004,0 -0.005,-0.006 -0.005,-0.0195 0,-0.0148 -0.001,-0.0195 -0.006,-0.0195 -0.003,0 -0.006,-0.004 -0.006,-0.009 -9e-5,-0.0149 -0.005,-0.0264 -0.0102,-0.0264 -0.004,0 -0.005,-0.006 -0.005,-0.0195 0,-0.0148 -10e-4,-0.0195 -0.006,-0.0195 -0.004,0 -0.006,-0.005 -0.006,-0.0176 0,-0.015 -10e-4,-0.0176 -0.008,-0.0176 -0.006,0 -0.008,-0.003 -0.008,-0.0137 0,-0.01 -0.002,-0.0137 -0.006,-0.0137 -0.004,0 -0.006,-0.004 -0.006,-0.0113 0,-0.008 -0.002,-0.0118 -0.008,-0.0133 -0.006,-0.002 -0.008,-0.005 -0.008,-0.02 0,-0.0133 -0.001,-0.0179 -0.006,-0.0179 -0.004,0 -0.006,-0.004 -0.006,-0.0117 0,-0.008 -0.002,-0.0117 -0.006,-0.0117 -0.004,0 -0.006,-0.004 -0.006,-0.0141 0,-0.0122 -0.001,-0.0138 -0.008,-0.0121 -0.007,0.002 -0.008,1.2e-4 -0.008,-0.0113 0,-0.009 -0.002,-0.0133 -0.006,-0.0133 -0.004,0 -0.006,-0.004 -0.006,-0.0117 0,-0.007 -0.002,-0.0117 -0.005,-0.0117 -0.006,0 -0.0102,-0.008 -0.0102,-0.0199 0,-0.004 -0.003,-0.007 -0.006,-0.007 -0.003,0 -0.006,-0.003 -0.006,-0.006 0,-0.003 -0.003,-0.006 -0.006,-0.006 -0.004,0 -0.006,-0.004 -0.006,-0.0117 0,-0.009 -0.002,-0.0117 -0.008,-0.0117 -0.006,0 -0.008,-0.003 -0.008,-0.0141 0,-0.0109 -0.001,-0.0136 -0.006,-0.0118 -0.004,0.002 -0.006,-2.1e-4 -0.006,-0.005 0,-0.004 -0.003,-0.008 -0.006,-0.008 -0.004,0 -0.006,-0.004 -0.006,-0.0117 0,-0.009 -0.002,-0.0117 -0.008,-0.0117 -0.004,0 -0.008,-0.003 -0.008,-0.006 0,-0.003 -0.003,-0.006 -0.006,-0.006 -0.004,0 -0.006,-0.004 -0.006,-0.0137 0,-0.01 -0.002,-0.0137 -0.006,-0.0137 -0.003,0 -0.006,-0.003 -0.006,-0.006 0,-0.003 -0.003,-0.006 -0.008,-0.006 -0.004,0 -0.008,-0.003 -0.008,-0.006 0,-0.003 -0.003,-0.006 -0.006,-0.006 -0.003,0 -0.006,-0.003 -0.006,-0.006 0,-0.003 -0.003,-0.006 -0.006,-0.006 -0.004,0 -0.006,-0.004 -0.006,-0.0117 0,-0.009 -0.002,-0.0117 -0.008,-0.0117 -0.004,0 -0.008,-0.003 -0.008,-0.006 0,-0.003 -0.003,-0.006 -0.006,-0.006 -0.003,0 -0.006,-0.003 -0.006,-0.008 0,-0.004 -0.003,-0.008 -0.006,-0.008 -0.003,0 -0.006,-0.003 -0.006,-0.006 0,-0.005 0.0237,-0.006 0.19043,-0.006 l 0.19043,1.8e-4 0.29687,0.29148 c 0.58061,0.57006 1.35592,1.32873 1.8895,1.84892 l 0.19418,0.18931 1.5e-4,0.24707 1.6e-4,0.24707 h -0.0195 c -0.0148,0 -0.0195,-10e-4 -0.0195,-0.006 z"
       id="path5650"
       inkscape:connector-curvature="0"
       transform="matrix(0.26458333,0,0,0.26458333,0,-105.83333)" />
    <path
       style="fill:#ffffff;fill-opacity:1;fill-rule:nonzero;stroke:none;stroke-width:0.21091536;stroke-linecap:round;stroke-linejoin:round;stroke-miterlimit:4;stroke-dasharray:none;stroke-opacity:1;paint-order:markers stroke fill"
       d="m 200.28958,790.96439 c 0,-0.003 -0.003,-0.006 -0.006,-0.006 -0.003,0 -0.006,-0.003 -0.006,-0.006 0,-0.003 -0.003,-0.006 -0.008,-0.006 -0.005,0 -0.008,-0.003 -0.008,-0.008 0,-0.007 -0.002,-0.008 -0.0117,-0.006 -0.0101,0.002 -0.0117,10e-4 -0.0117,-0.006 0,-0.005 -0.003,-0.008 -0.006,-0.008 -0.003,0 -0.006,-0.003 -0.006,-0.006 0,-0.004 -0.004,-0.006 -0.0137,-0.006 -0.01,0 -0.0137,-0.002 -0.0137,-0.006 0,-0.003 -0.003,-0.006 -0.006,-0.006 -0.003,0 -0.006,-0.003 -0.006,-0.006 0,-0.004 -0.004,-0.006 -0.0137,-0.006 -0.01,0 -0.0137,-0.002 -0.0137,-0.006 0,-0.003 -0.003,-0.006 -0.006,-0.006 -0.003,0 -0.006,-0.003 -0.006,-0.006 0,-0.004 -0.004,-0.006 -0.0137,-0.006 -0.01,0 -0.0137,-0.002 -0.0137,-0.006 0,-0.003 -0.003,-0.006 -0.006,-0.006 -0.003,0 -0.006,-0.003 -0.006,-0.006 0,-0.004 -0.004,-0.006 -0.0117,-0.006 -0.008,0 -0.0117,-0.002 -0.0117,-0.006 0,-0.004 -0.004,-0.006 -0.0137,-0.006 -0.01,0 -0.0137,-0.002 -0.0137,-0.006 0,-0.004 -0.004,-0.006 -0.0117,-0.006 -0.008,0 -0.0117,-0.002 -0.0117,-0.006 0,-0.004 -0.004,-0.006 -0.0137,-0.006 -0.01,0 -0.0137,-0.002 -0.0137,-0.006 0,-0.004 -0.004,-0.006 -0.0117,-0.006 -0.008,0 -0.0117,-0.002 -0.0117,-0.006 0,-0.003 -0.003,-0.006 -0.008,-0.006 -0.005,0 -0.008,-0.003 -0.008,-0.008 0,-0.006 -0.002,-0.008 -0.006,-0.006 -0.005,0.002 -0.006,-8.7e-4 -0.006,-0.0113 0,-0.009 -0.002,-0.0136 -0.006,-0.0136 -0.003,0 -0.006,-0.003 -0.006,-0.006 0,-0.003 -0.003,-0.006 -0.008,-0.006 -0.004,0 -0.008,-0.003 -0.008,-0.006 0,-0.003 -0.003,-0.006 -0.006,-0.006 -0.003,0 -0.006,-0.003 -0.006,-0.006 0,-0.003 -0.003,-0.006 -0.006,-0.006 -0.003,0 -0.006,-0.003 -0.006,-0.006 0,-0.003 -0.003,-0.006 -0.008,-0.006 -0.005,0 -0.008,-0.003 -0.008,-0.008 0,-0.004 -0.003,-0.008 -0.006,-0.008 -0.003,0 -0.006,-0.003 -0.006,-0.006 0,-0.003 -0.003,-0.006 -0.006,-0.006 -0.003,0 -0.006,-0.003 -0.006,-0.006 0,-0.003 -0.003,-0.006 -0.008,-0.006 -0.004,0 -0.008,-0.003 -0.008,-0.006 0,-0.003 -0.003,-0.006 -0.006,-0.006 -0.003,0 -0.006,-0.003 -0.006,-0.006 0,-0.003 -0.003,-0.006 -0.006,-0.006 -0.003,0 -0.006,-0.003 -0.006,-0.006 0,-0.003 -0.003,-0.006 -0.006,-0.006 -0.003,0 -0.006,-0.003 -0.006,-0.006 0,-0.003 -0.003,-0.006 -0.008,-0.006 -0.005,0 -0.008,-0.003 -0.008,-0.008 0,-0.004 -0.003,-0.008 -0.006,-0.008 -0.003,0 -0.006,-0.003 -0.006,-0.006 0,-0.003 -0.003,-0.006 -0.006,-0.006 -0.003,0 -0.006,-0.003 -0.006,-0.006 0,-0.004 -0.004,-0.006 -0.0137,-0.006 -0.01,0 -0.0137,-0.002 -0.0137,-0.006 0,-0.003 -0.003,-0.006 -0.006,-0.006 -0.003,0 -0.006,-0.003 -0.006,-0.006 0,-0.003 -0.003,-0.006 -0.006,-0.006 -0.003,0 -0.006,-0.003 -0.006,-0.006 0,-0.003 -0.003,-0.006 -0.008,-0.006 -0.004,0 -0.008,-0.003 -0.008,-0.006 0,-0.003 -0.003,-0.006 -0.006,-0.006 -0.003,0 -0.006,-0.003 -0.006,-0.006 0,-0.003 -0.003,-0.006 -0.006,-0.006 -0.003,0 -0.006,-0.004 -0.006,-0.008 0,-0.006 -0.002,-0.008 -0.008,-0.006 -0.006,0.002 -0.008,1.2e-4 -0.008,-0.005 0,-0.004 -0.003,-0.007 -0.006,-0.007 -0.003,0 -0.006,-0.003 -0.006,-0.006 0,-0.003 -0.003,-0.006 -0.006,-0.006 -0.003,0 -0.006,-0.003 -0.006,-0.006 0,-0.003 -0.003,-0.006 -0.008,-0.006 -0.004,0 -0.008,-0.003 -0.008,-0.006 0,-0.003 -0.003,-0.006 -0.006,-0.006 -0.003,0 -0.006,-0.003 -0.006,-0.006 0,-0.003 -0.003,-0.006 -0.006,-0.006 -0.003,0 -0.006,-0.003 -0.006,-0.006 0,-0.003 -0.003,-0.006 -0.006,-0.006 -0.003,0 -0.006,-0.003 -0.006,-0.007 0,-0.006 -0.002,-0.007 -0.008,-0.005 -0.006,0.002 -0.008,1.2e-4 -0.008,-0.006 0,-0.005 -0.002,-0.008 -0.006,-0.008 -0.003,0 -0.006,-0.003 -0.006,-0.006 0,-0.003 -0.003,-0.006 -0.006,-0.006 -0.003,0 -0.006,-0.003 -0.006,-0.006 0,-0.003 -0.003,-0.006 -0.008,-0.006 -0.004,0 -0.008,-0.003 -0.008,-0.006 0,-0.003 -0.003,-0.006 -0.006,-0.006 -0.003,0 -0.006,-0.003 -0.006,-0.006 0,-0.003 -0.003,-0.006 -0.006,-0.006 -0.003,0 -0.006,-0.003 -0.006,-0.006 0,-0.003 -0.003,-0.006 -0.008,-0.006 -0.004,0 -0.008,-0.003 -0.008,-0.006 0,-0.003 -0.003,-0.006 -0.006,-0.006 -0.003,0 -0.006,-0.003 -0.006,-0.008 0,-0.004 -0.003,-0.008 -0.006,-0.008 -0.003,0 -0.006,-0.003 -0.006,-0.006 0,-0.003 -0.003,-0.006 -0.006,-0.006 -0.003,0 -0.006,-0.003 -0.006,-0.006 0,-0.004 -0.004,-0.006 -0.0137,-0.006 -0.01,0 -0.0137,-0.002 -0.0137,-0.006 0,-0.003 -0.003,-0.006 -0.006,-0.006 -0.003,0 -0.006,-0.003 -0.006,-0.006 0,-0.003 -0.003,-0.006 -0.008,-0.006 -0.004,0 -0.008,-0.003 -0.008,-0.006 0,-0.003 -0.003,-0.006 -0.006,-0.006 -0.003,0 -0.006,-0.003 -0.006,-0.006 0,-0.003 -0.003,-0.006 -0.006,-0.006 -0.003,0 -0.006,-0.003 -0.006,-0.006 0,-0.003 -0.003,-0.006 -0.006,-0.006 -0.003,0 -0.006,-0.003 -0.006,-0.008 0,-0.005 -0.003,-0.008 -0.008,-0.008 -0.004,0 -0.008,-0.003 -0.008,-0.006 0,-0.003 -0.003,-0.006 -0.006,-0.006 -0.003,0 -0.006,-0.003 -0.006,-0.006 0,-0.003 -0.003,-0.006 -0.006,-0.006 -0.003,0 -0.006,-0.003 -0.006,-0.006 0,-0.003 -0.003,-0.006 -0.008,-0.006 -0.004,0 -0.008,-0.003 -0.008,-0.006 0,-0.003 -0.003,-0.006 -0.006,-0.006 -0.003,0 -0.006,-0.003 -0.006,-0.006 0,-0.003 -0.003,-0.006 -0.006,-0.006 -0.003,0 -0.006,-0.003 -0.006,-0.006 0,-0.004 -0.004,-0.006 -0.0137,-0.006 -0.01,0 -0.0137,-0.002 -0.0137,-0.006 0,-0.003 -0.003,-0.006 -0.006,-0.006 -0.003,0 -0.006,-0.003 -0.006,-0.008 0,-0.004 -0.003,-0.008 -0.006,-0.008 -0.003,0 -0.006,-0.003 -0.006,-0.006 0,-0.003 -0.003,-0.006 -0.008,-0.006 -0.004,0 -0.008,-0.003 -0.008,-0.006 0,-0.003 -0.003,-0.006 -0.006,-0.006 -0.003,0 -0.006,-0.003 -0.006,-0.006 0,-0.003 -0.003,-0.006 -0.006,-0.006 -0.003,0 -0.006,-0.003 -0.006,-0.006 0,-0.003 -0.003,-0.006 -0.008,-0.006 -0.004,0 -0.008,-0.003 -0.008,-0.006 0,-0.003 -0.003,-0.006 -0.006,-0.006 -0.003,0 -0.006,-0.003 -0.006,-0.006 0,-0.003 -0.003,-0.006 -0.006,-0.006 -0.003,0 -0.006,-0.003 -0.006,-0.008 0,-0.006 -0.002,-0.007 -0.0137,-0.005 -0.0122,0.002 -0.0137,10e-4 -0.0137,-0.007 0,-0.006 -0.002,-0.008 -0.006,-0.006 -0.004,0.002 -0.006,-2.1e-4 -0.006,-0.005 0,-0.004 -0.003,-0.008 -0.006,-0.008 -0.003,0 -0.006,-0.003 -0.006,-0.006 0,-0.003 -0.003,-0.006 -0.008,-0.006 -0.006,0 -0.008,-0.003 -0.008,-0.0117 0,-0.008 -0.002,-0.0117 -0.006,-0.0117 -0.003,0 -0.006,-0.003 -0.006,-0.006 0,-0.003 -0.003,-0.006 -0.006,-0.006 -0.004,0 -0.006,-0.004 -0.006,-0.0137 0,-0.0111 -0.001,-0.0137 -0.008,-0.0137 -0.006,0 -0.008,-0.003 -0.008,-0.0117 0,-0.008 -0.002,-0.0117 -0.006,-0.0117 -0.004,0 -0.006,-0.004 -0.006,-0.0117 0,-0.008 -0.002,-0.0117 -0.006,-0.0117 -0.003,0 -0.006,-0.003 -0.006,-0.008 0,-0.005 -0.003,-0.008 -0.008,-0.008 -0.006,0 -0.008,-0.003 -0.008,-0.0117 0,-0.008 -0.002,-0.0117 -0.006,-0.0117 -0.003,0 -0.006,-0.003 -0.006,-0.006 0,-0.003 -0.003,-0.006 -0.006,-0.006 -0.004,0 -0.006,-0.004 -0.006,-0.0133 0,-0.0114 -0.001,-0.013 -0.008,-0.0113 -0.006,0.002 -0.008,1.2e-4 -0.008,-0.006 0,-0.005 -0.002,-0.008 -0.006,-0.008 -0.004,0 -0.006,-0.004 -0.006,-0.0117 0,-0.008 -0.002,-0.0117 -0.006,-0.0117 -0.003,0 -0.006,-0.003 -0.006,-0.006 0,-0.003 -0.003,-0.006 -0.008,-0.006 -0.004,0 -0.008,-0.003 -0.008,-0.006 0,-0.003 -0.003,-0.006 -0.006,-0.006 -0.004,0 -0.006,-0.004 -0.006,-0.0137 0,-0.01 -0.002,-0.0137 -0.006,-0.0137 -0.003,0 -0.006,-0.003 -0.006,-0.006 0,-0.003 -0.003,-0.006 -0.008,-0.006 -0.004,0 -0.008,-0.003 -0.008,-0.006 0,-0.003 -0.003,-0.006 -0.006,-0.006 -0.003,0 -0.006,-0.003 -0.006,-0.006 0,-0.003 -0.003,-0.006 -0.006,-0.006 -0.004,0 -0.006,-0.004 -0.006,-0.0117 0,-0.009 -0.002,-0.0117 -0.008,-0.0117 -0.005,0 -0.008,-0.003 -0.008,-0.008 0,-0.006 -0.002,-0.008 -0.006,-0.006 -0.004,0.002 -0.006,-2.1e-4 -0.006,-0.005 0,-0.004 -0.003,-0.008 -0.006,-0.008 -0.003,0 -0.006,-0.003 -0.006,-0.006 0,-0.003 -0.003,-0.006 -0.008,-0.006 -0.004,0 -0.008,-0.003 -0.008,-0.006 0,-0.003 -0.003,-0.006 -0.006,-0.006 -0.003,0 -0.006,-0.003 -0.006,-0.006 0,-0.003 -0.003,-0.006 -0.006,-0.006 -0.003,0 -0.006,-0.003 -0.006,-0.006 0,-0.003 -0.003,-0.006 -0.006,-0.006 -0.003,0 -0.006,-0.003 -0.006,-0.006 0,-0.003 -0.003,-0.006 -0.008,-0.006 -0.005,0 -0.008,-0.003 -0.008,-0.008 0,-0.005 -0.002,-0.007 -0.006,-0.005 -0.004,0.002 -0.006,-2.7e-4 -0.006,-0.006 0,-0.005 -0.003,-0.008 -0.006,-0.008 -0.003,0 -0.006,-0.003 -0.006,-0.006 0,-0.003 -0.003,-0.006 -0.008,-0.006 -0.004,0 -0.008,-0.003 -0.008,-0.006 0,-0.003 -0.003,-0.006 -0.006,-0.006 -0.003,0 -0.006,-0.003 -0.006,-0.006 0,-0.003 -0.003,-0.006 -0.006,-0.006 -0.003,0 -0.006,-0.003 -0.006,-0.006 0,-0.003 -0.003,-0.006 -0.008,-0.006 -0.004,0 -0.008,-0.003 -0.008,-0.006 0,-0.003 -0.003,-0.006 -0.006,-0.006 -0.003,0 -0.006,-0.003 -0.006,-0.006 0,-0.003 -0.003,-0.006 -0.006,-0.006 -0.003,0 -0.006,-0.004 -0.006,-0.008 0,-0.007 -0.002,-0.008 -0.0137,-0.006 -0.012,0.002 -0.0137,0.002 -0.0137,-0.005 0,-0.004 -0.003,-0.008 -0.006,-0.008 -0.003,0 -0.006,-0.003 -0.006,-0.006 0,-0.003 -0.003,-0.006 -0.006,-0.006 -0.003,0 -0.006,-0.003 -0.006,-0.006 0,-0.003 -0.003,-0.006 -0.008,-0.006 -0.004,0 -0.008,-0.003 -0.008,-0.006 0,-0.004 -0.004,-0.006 -0.0117,-0.006 -0.008,0 -0.0117,-0.002 -0.0117,-0.006 0,-0.003 -0.003,-0.006 -0.006,-0.006 -0.003,0 -0.006,-0.003 -0.006,-0.006 0,-0.003 -0.003,-0.006 -0.008,-0.006 -0.004,0 -0.008,-0.003 -0.008,-0.006 0,-0.004 -0.004,-0.006 -0.0117,-0.006 -0.008,0 -0.0117,-0.002 -0.0117,-0.006 0,-0.003 -0.003,-0.006 -0.006,-0.006 -0.003,0 -0.007,-0.003 -0.008,-0.007 -0.002,-0.005 -0.005,-0.007 -0.0139,-0.005 -0.01,10e-4 -0.0117,4.4e-4 -0.0117,-0.007 0,-0.006 -0.002,-0.008 -0.006,-0.006 -0.004,0.002 -0.006,-2.1e-4 -0.006,-0.005 0,-0.006 -0.003,-0.008 -0.0137,-0.008 -0.01,0 -0.0137,-0.002 -0.0137,-0.006 0,-0.003 -0.003,-0.006 -0.006,-0.006 -0.003,0 -0.006,-0.003 -0.006,-0.006 0,-0.004 -0.004,-0.006 -0.0137,-0.006 -0.01,0 -0.0137,-0.002 -0.0137,-0.006 0,-0.004 -0.004,-0.006 -0.0117,-0.006 -0.008,0 -0.0117,-0.002 -0.0117,-0.006 0,-0.004 -0.004,-0.006 -0.0137,-0.006 -0.01,0 -0.0137,-0.002 -0.0137,-0.006 0,-0.003 -0.003,-0.006 -0.006,-0.006 -0.003,0 -0.006,-0.003 -0.006,-0.006 0,-0.004 -0.004,-0.006 -0.0118,-0.006 -0.007,0 -0.0128,-0.002 -0.0141,-0.006 -0.001,-0.003 -0.005,-0.006 -0.008,-0.006 -0.003,0 -0.005,-0.003 -0.005,-0.006 0,-0.003 -0.003,-0.006 -0.006,-0.006 -0.003,0 -0.006,-0.003 -0.006,-0.006 0,-0.003 -0.003,-0.006 -0.006,-0.006 -0.004,0 -0.006,-0.004 -0.006,-0.0121 0,-0.009 -0.002,-0.0126 -0.008,-0.0141 -0.004,-10e-4 -0.008,-0.004 -0.008,-0.007 0,-0.003 -0.003,-0.005 -0.006,-0.005 -0.003,0 -0.006,-0.003 -0.006,-0.006 0,-0.003 -0.003,-0.006 -0.006,-0.006 -0.003,0 -0.006,-0.003 -0.006,-0.006 0,-0.003 -0.003,-0.006 -0.008,-0.006 -0.004,0 -0.008,-0.003 -0.008,-0.006 0,-0.003 -0.003,-0.006 -0.006,-0.006 -0.003,0 -0.006,-0.003 -0.006,-0.006 0,-0.003 -0.003,-0.006 -0.006,-0.006 -0.003,0 -0.006,-0.003 -0.006,-0.008 0,-0.005 -0.003,-0.008 -0.008,-0.008 -0.004,0 -0.008,-0.003 -0.008,-0.006 0,-0.003 -0.003,-0.006 -0.006,-0.006 -0.003,0 -0.006,-0.003 -0.006,-0.006 0,-0.003 -0.003,-0.006 -0.006,-0.006 -0.004,0 -0.006,-0.004 -0.006,-0.0117 0,-0.009 -0.002,-0.0117 -0.008,-0.0117 -0.004,0 -0.008,-0.003 -0.008,-0.006 0,-0.003 -0.003,-0.006 -0.006,-0.006 -0.003,0 -0.006,-0.003 -0.006,-0.008 0,-0.005 -0.002,-0.007 -0.006,-0.005 -0.004,0.002 -0.006,-2.7e-4 -0.006,-0.006 0,-0.005 -0.002,-0.008 -0.006,-0.008 -0.003,0 -0.006,-0.003 -0.006,-0.006 0,-0.003 -0.003,-0.006 -0.008,-0.006 -0.004,0 -0.008,-0.003 -0.008,-0.006 0,-0.003 -0.003,-0.006 -0.006,-0.006 -0.003,0 -0.006,-0.003 -0.006,-0.006 0,-0.003 -0.003,-0.006 -0.006,-0.006 -0.003,0 -0.006,-0.003 -0.006,-0.006 0,-0.003 -0.003,-0.006 -0.008,-0.006 -0.004,0 -0.008,-0.003 -0.008,-0.006 0,-0.003 -0.003,-0.006 -0.006,-0.006 -0.003,0 -0.006,-0.003 -0.006,-0.006 0,-0.003 -0.003,-0.006 -0.006,-0.006 -0.003,0 -0.006,-0.003 -0.006,-0.008 0,-0.005 -0.003,-0.008 -0.008,-0.008 -0.004,0 -0.008,-0.003 -0.008,-0.006 0,-0.003 -0.003,-0.006 -0.006,-0.006 -0.004,0 -0.006,-0.004 -0.006,-0.0117 0,-0.008 -0.002,-0.0117 -0.006,-0.0117 -0.003,0 -0.006,-0.003 -0.006,-0.006 0,-0.003 -0.003,-0.006 -0.006,-0.006 -0.003,0 -0.007,-0.003 -0.008,-0.006 -0.001,-0.003 -0.005,-0.006 -0.008,-0.006 -0.003,0 -0.005,-0.003 -0.005,-0.008 0,-0.005 -0.002,-0.007 -0.006,-0.005 -0.004,0.002 -0.006,-2.7e-4 -0.006,-0.006 0,-0.005 -0.002,-0.008 -0.006,-0.008 -0.003,0 -0.006,-0.003 -0.006,-0.006 0,-0.003 -0.003,-0.006 -0.008,-0.006 -0.004,0 -0.008,-0.003 -0.008,-0.006 0,-0.003 -0.003,-0.006 -0.006,-0.006 -0.003,0 -0.006,-0.003 -0.006,-0.006 0,-0.003 -0.003,-0.006 -0.006,-0.006 -0.003,0 -0.006,-0.003 -0.006,-0.006 0,-0.003 -0.003,-0.006 -0.008,-0.006 -0.004,0 -0.008,-0.003 -0.008,-0.006 0,-0.003 -0.003,-0.006 -0.006,-0.006 -0.003,0 -0.006,-0.003 -0.006,-0.006 0,-0.003 -0.003,-0.006 -0.006,-0.006 -0.003,0 -0.006,-0.003 -0.006,-0.008 0,-0.004 -0.003,-0.008 -0.006,-0.008 -0.003,0 -0.007,-0.003 -0.008,-0.006 -10e-4,-0.003 -0.005,-0.006 -0.008,-0.006 -0.003,0 -0.005,-0.003 -0.005,-0.006 0,-0.003 -0.003,-0.006 -0.006,-0.006 -0.003,0 -0.006,-0.003 -0.006,-0.006 0,-0.003 -0.003,-0.006 -0.006,-0.006 -0.003,0 -0.006,-0.003 -0.006,-0.006 0,-0.003 -0.003,-0.006 -0.008,-0.006 -0.004,0 -0.008,-0.003 -0.008,-0.006 0,-0.003 -0.003,-0.006 -0.006,-0.006 -0.003,0 -0.006,-0.003 -0.006,-0.006 0,-0.003 -0.003,-0.006 -0.006,-0.006 -0.003,0 -0.006,-0.004 -0.006,-0.008 0,-0.006 -0.002,-0.008 -0.008,-0.006 -0.006,0.002 -0.008,1.2e-4 -0.008,-0.005 0,-0.004 -0.003,-0.007 -0.006,-0.007 -0.003,0 -0.006,-0.003 -0.006,-0.006 0,-0.003 -0.003,-0.006 -0.006,-0.006 -0.003,0 -0.006,-0.003 -0.006,-0.006 0,-0.003 -0.003,-0.006 -0.006,-0.006 -0.003,0 -0.007,-0.003 -0.008,-0.006 -10e-4,-0.003 -0.005,-0.006 -0.008,-0.006 -0.003,0 -0.005,-0.004 -0.005,-0.0117 0,-0.008 -0.002,-0.0117 -0.006,-0.0117 -0.003,0 -0.006,-0.003 -0.006,-0.008 0,-0.004 -0.002,-0.008 -0.005,-0.008 -0.003,0 -0.006,-0.003 -0.008,-0.006 -0.001,-0.003 -0.005,-0.006 -0.008,-0.006 -0.003,0 -0.006,-0.003 -0.006,-0.006 0,-0.003 -0.003,-0.006 -0.006,-0.006 -0.003,0 -0.006,-0.003 -0.006,-0.006 0,-0.003 -0.003,-0.006 -0.006,-0.006 -0.003,0 -0.006,-0.003 -0.006,-0.006 0,-0.003 -0.003,-0.006 -0.008,-0.006 -0.004,0 -0.008,-0.003 -0.008,-0.006 0,-0.003 -0.003,-0.006 -0.006,-0.006 -0.003,0 -0.006,-0.003 -0.006,-0.006 0,-0.003 -0.003,-0.006 -0.006,-0.006 -0.003,0 -0.006,-0.004 -0.006,-0.008 0,-0.006 -0.002,-0.008 -0.008,-0.006 -0.006,0.002 -0.008,1.2e-4 -0.008,-0.005 0,-0.004 -0.003,-0.007 -0.006,-0.007 -0.003,0 -0.006,-0.003 -0.006,-0.006 0,-0.003 -0.003,-0.006 -0.006,-0.006 -0.003,0 -0.006,-0.003 -0.006,-0.006 0,-0.003 -0.003,-0.006 -0.006,-0.006 -0.003,0 -0.006,-0.003 -0.006,-0.006 0,-0.003 -0.003,-0.006 -0.008,-0.006 -0.004,0 -0.008,-0.003 -0.008,-0.006 0,-0.003 -0.003,-0.006 -0.006,-0.006 -0.003,0 -0.006,-0.003 -0.006,-0.006 0,-0.004 -0.004,-0.006 -0.0137,-0.006 -0.01,0 -0.0137,-0.002 -0.0137,-0.006 0,-0.003 -0.003,-0.006 -0.006,-0.006 -0.003,0 -0.006,-0.004 -0.006,-0.008 0,-0.006 -0.002,-0.008 -0.006,-0.006 -0.005,0.002 -0.006,-8.6e-4 -0.006,-0.0113 0,-0.0109 -0.001,-0.0136 -0.008,-0.0136 -0.006,0 -0.008,-0.003 -0.008,-0.0117 0,-0.008 -0.002,-0.0117 -0.006,-0.0117 -0.004,0 -0.006,-0.004 -0.006,-0.0137 0,-0.01 -0.002,-0.0137 -0.006,-0.0137 -0.004,0 -0.006,-0.004 -0.006,-0.0117 0,-0.009 -0.002,-0.0117 -0.008,-0.0117 -0.006,0 -0.008,-0.003 -0.008,-0.0117 0,-0.008 -0.002,-0.0117 -0.006,-0.0117 -0.003,0 -0.006,-0.003 -0.006,-0.008 0,-0.004 -0.003,-0.008 -0.006,-0.008 -0.004,0 -0.006,-0.004 -0.006,-0.0117 0,-0.009 -0.002,-0.0117 -0.008,-0.0117 -0.004,0 -0.008,-0.003 -0.008,-0.006 0,-0.003 -0.003,-0.006 -0.006,-0.006 -0.004,0 -0.006,-0.004 -0.006,-0.0117 0,-0.008 -0.002,-0.0117 -0.006,-0.0117 -0.003,0 -0.006,-0.003 -0.006,-0.008 0,-0.005 -0.003,-0.008 -0.008,-0.008 -0.006,0 -0.008,-0.003 -0.008,-0.0117 0,-0.008 -0.002,-0.0117 -0.006,-0.0117 -0.003,0 -0.006,-0.003 -0.006,-0.006 0,-0.003 -0.003,-0.006 -0.006,-0.006 -0.004,0 -0.006,-0.004 -0.006,-0.0101 0,-0.007 -0.003,-0.0108 -0.008,-0.0122 -0.004,-10e-4 -0.008,-0.005 -0.008,-0.009 0,-0.004 -0.003,-0.007 -0.006,-0.007 -0.003,0 -0.006,-0.003 -0.006,-0.006 0,-0.003 -0.003,-0.006 -0.006,-0.006 -0.004,0 -0.006,-0.004 -0.006,-0.0101 0,-0.007 -0.003,-0.0108 -0.008,-0.0122 -0.004,-10e-4 -0.008,-0.004 -0.008,-0.007 0,-0.003 -0.003,-0.005 -0.006,-0.005 -0.003,0 -0.006,-0.003 -0.006,-0.006 0,-0.003 -0.003,-0.006 -0.006,-0.006 -0.003,0 -0.006,-0.004 -0.006,-0.008 0,-0.006 -0.002,-0.008 -0.008,-0.006 -0.007,0.002 -0.008,7e-4 -0.008,-0.0115 0,-0.01 -0.002,-0.0139 -0.006,-0.0139 -0.003,0 -0.006,-0.003 -0.006,-0.006 0,-0.003 -0.003,-0.006 -0.006,-0.006 -0.003,0 -0.006,-0.003 -0.006,-0.006 0,-0.003 -0.003,-0.006 -0.008,-0.006 -0.004,0 -0.008,-0.003 -0.008,-0.006 0,-0.003 -0.003,-0.006 -0.006,-0.006 -0.003,0 -0.006,-0.003 -0.006,-0.006 0,-0.003 -0.003,-0.006 -0.006,-0.006 -0.003,0 -0.006,-0.004 -0.006,-0.008 0,-0.006 -0.002,-0.008 -0.008,-0.006 -0.006,0.002 -0.008,1.2e-4 -0.008,-0.005 0,-0.004 -0.003,-0.007 -0.006,-0.007 -0.003,0 -0.006,-0.003 -0.006,-0.006 0,-0.003 -0.003,-0.006 -0.006,-0.006 -0.003,0 -0.006,-0.003 -0.006,-0.006 0,-0.003 -0.003,-0.006 -0.006,-0.006 -0.003,0 -0.006,-0.003 -0.006,-0.006 0,-0.003 -0.003,-0.006 -0.008,-0.006 -0.004,0 -0.008,-0.003 -0.008,-0.006 0,-0.003 -0.003,-0.006 -0.006,-0.006 -0.003,0 -0.006,-0.003 -0.006,-0.006 0,-0.003 -0.003,-0.006 -0.006,-0.006 -0.003,0 -0.006,-0.004 -0.006,-0.008 0,-0.006 -0.002,-0.008 -0.008,-0.006 -0.006,0.002 -0.008,7.1e-4 -0.008,-0.006 0,-0.006 -0.002,-0.008 -0.0117,-0.008 -0.008,0 -0.0117,-0.002 -0.0117,-0.006 0,-0.003 -0.003,-0.006 -0.006,-0.006 -0.003,0 -0.006,-0.003 -0.006,-0.006 0,-0.003 -0.003,-0.006 -0.008,-0.006 -0.004,0 -0.008,-0.003 -0.008,-0.006 0,-0.003 -0.003,-0.006 -0.006,-0.006 -0.003,0 -0.006,-0.003 -0.006,-0.006 0,-0.004 -0.004,-0.006 -0.0137,-0.006 -0.01,0 -0.0137,-0.002 -0.0137,-0.006 0,-0.003 -0.003,-0.006 -0.006,-0.006 -0.003,0 -0.006,-0.003 -0.006,-0.006 0,-0.003 -0.003,-0.006 -0.006,-0.006 -0.003,0 -0.006,-0.003 -0.006,-0.006 0,-0.004 -0.004,-0.006 -0.0137,-0.006 -0.01,0 -0.0137,-0.002 -0.0137,-0.006 0,-0.003 -0.003,-0.006 -0.006,-0.006 -0.003,0 -0.006,-0.004 -0.006,-0.008 0,-0.007 -0.002,-0.008 -0.0114,-0.006 -0.009,0.002 -0.0118,10e-4 -0.0139,-0.006 -0.001,-0.004 -0.005,-0.008 -0.008,-0.008 -0.003,0 -0.006,-0.003 -0.006,-0.006 0,-0.004 -0.004,-0.006 -0.0117,-0.006 -0.008,0 -0.0117,-0.002 -0.0117,-0.006 0,-0.003 -0.003,-0.006 -0.008,-0.006 -0.004,0 -0.008,-0.003 -0.008,-0.006 0,-0.004 -0.004,-0.006 -0.0117,-0.006 -0.008,0 -0.0117,-0.002 -0.0117,-0.006 0,-0.003 -0.003,-0.006 -0.006,-0.006 -0.003,0 -0.006,-0.003 -0.006,-0.006 0,-0.004 -0.004,-0.006 -0.0137,-0.006 -0.01,0 -0.0137,-0.002 -0.0137,-0.006 0,-0.004 -0.004,-0.006 -0.0117,-0.006 -0.008,0 -0.0117,-0.002 -0.0117,-0.006 0,-0.004 -0.004,-0.006 -0.0137,-0.006 -0.01,0 -0.0137,-0.002 -0.0137,-0.006 0,-0.004 -0.004,-0.006 -0.0118,-0.006 -0.007,0 -0.0128,-0.002 -0.0141,-0.006 -0.001,-0.003 -0.007,-0.006 -0.0135,-0.006 -0.007,0 -0.0113,-0.002 -0.0113,-0.006 0,-0.003 -0.003,-0.006 -0.006,-0.006 -0.003,0 -0.006,-0.003 -0.006,-0.006 0,-0.003 -0.003,-0.006 -0.008,-0.006 -0.006,0 -0.008,-0.003 -0.008,-0.0137 0,-0.01 -0.002,-0.0137 -0.006,-0.0137 -0.003,0 -0.006,-0.003 -0.006,-0.006 0,-0.003 -0.003,-0.006 -0.007,-0.007 -0.004,-9.9e-4 0.19469,-0.002 0.441,-0.002 l 0.44783,-4.6e-4 0.009,0.01 c 0.005,0.005 0.0114,0.01 0.0141,0.01 0.003,3e-5 0.005,0.004 0.005,0.008 0,0.007 0.0276,0.0392 0.0339,0.0392 0.005,0 0.0208,0.0207 0.0208,0.028 0,0.008 0.0105,0.02 0.0208,0.024 0.004,10e-4 0.007,0.007 0.007,0.012 0,0.005 0.003,0.0105 0.006,0.0117 0.003,10e-4 0.006,0.005 0.006,0.008 0,0.003 0.003,0.006 0.006,0.006 0.004,0 0.006,0.004 0.006,0.01 0,0.006 0.003,0.0114 0.008,0.0138 0.004,0.002 0.008,0.007 0.008,0.0111 0,0.004 0.005,0.0112 0.0115,0.0165 0.006,0.005 0.0116,0.0127 0.0117,0.0164 9e-5,0.004 0.004,0.0104 0.008,0.0146 0.004,0.004 0.008,0.0112 0.008,0.0154 0,0.004 0.002,0.009 0.006,0.0107 0.003,0.002 0.006,0.008 0.007,0.0148 9.3e-4,0.008 0.003,0.0116 0.008,0.0112 0.005,-3.8e-4 0.007,0.002 0.007,0.009 0,0.005 0.002,0.0114 0.005,0.0142 0.003,0.003 0.006,0.01 0.008,0.0159 0.001,0.006 0.004,0.0107 0.007,0.0107 0.002,0 0.004,0.006 0.004,0.0137 0,0.008 0.003,0.0166 0.007,0.0211 0.004,0.004 0.009,0.0115 0.0103,0.0164 0.002,0.005 0.005,0.0114 0.008,0.0143 0.003,0.003 0.005,0.01 0.005,0.0148 0,0.006 0.002,0.009 0.005,0.009 0.007,0 0.0102,0.008 0.0102,0.0233 0,0.006 0.003,0.012 0.006,0.0132 0.004,0.002 0.006,0.008 0.006,0.0195 0,0.011 0.002,0.018 0.005,0.0193 0.003,0.001 0.007,0.009 0.008,0.0166 0.001,0.008 0.005,0.0171 0.008,0.0201 0.003,0.003 0.006,0.0117 0.006,0.0193 0,0.008 0.003,0.0163 0.006,0.0195 0.003,0.003 0.006,0.0109 0.006,0.017 0,0.006 0.003,0.0141 0.007,0.0177 0.004,0.004 0.007,0.0152 0.008,0.0286 0.001,0.0129 0.004,0.0233 0.007,0.0252 0.003,0.002 0.005,0.009 0.005,0.0156 1e-5,0.007 0.003,0.0174 0.006,0.0233 0.003,0.006 0.007,0.0212 0.008,0.034 0.002,0.014 0.005,0.0239 0.008,0.0252 0.003,10e-4 0.005,0.008 0.005,0.0154 0,0.0103 0.004,0.017 0.0156,0.0294 0.009,0.009 0.0168,0.0161 0.0182,0.0161 0.004,0 0.0326,0.0311 0.0326,0.0353 0,0.002 0.003,0.004 0.006,0.004 0.003,0 0.006,0.003 0.006,0.006 0,0.003 0.002,0.006 0.004,0.006 0.002,0 0.0128,0.008 0.0231,0.0186 0.0103,0.0102 0.0276,0.0265 0.0386,0.0361 0.0428,0.0378 0.0823,0.0782 0.0823,0.084 0,0.003 0.003,0.007 0.006,0.008 0.003,10e-4 0.006,0.005 0.006,0.008 0,0.003 0.003,0.005 0.006,0.005 0.003,0 0.006,0.003 0.006,0.006 0,0.003 0.002,0.006 0.004,0.006 0.002,0 0.0123,0.009 0.0229,0.0195 0.0106,0.0107 0.0202,0.0195 0.0214,0.0195 0.001,0 0.0218,0.0193 0.0457,0.043 0.0239,0.0236 0.045,0.043 0.0469,0.043 0.002,0 0.005,0.002 0.007,0.005 0.002,0.003 0.0124,0.006 0.0259,0.007 0.0126,0.001 0.024,0.004 0.0254,0.006 0.001,0.002 0.013,0.005 0.0256,0.006 0.0127,10e-4 0.0242,0.004 0.0255,0.006 10e-4,0.002 0.01,0.005 0.0189,0.007 0.009,10e-4 0.0165,0.004 0.0165,0.006 0,0.002 0.0114,0.003 0.0254,0.003 0.0209,0 0.0254,10e-4 0.0254,0.006 0,0.005 0.003,0.006 0.0172,0.004 0.0136,-0.002 0.0185,-4e-4 0.0235,0.006 0.005,0.006 0.009,0.007 0.0199,0.005 0.0104,-0.002 0.0141,-10e-4 0.0159,0.004 10e-4,0.003 0.007,0.006 0.0119,0.006 0.005,0 0.0105,0.003 0.0117,0.006 0.001,0.004 0.008,0.006 0.0172,0.006 0.008,0 0.0173,0.002 0.0202,0.005 0.003,0.003 0.0129,0.006 0.0223,0.008 0.009,10e-4 0.0182,0.004 0.0195,0.006 0.001,0.002 0.007,0.005 0.012,0.007 0.005,0.002 0.012,0.005 0.0149,0.008 0.003,0.003 0.009,0.005 0.0131,0.005 0.004,0 0.0105,0.003 0.0137,0.006 0.003,0.003 0.0114,0.006 0.0183,0.006 0.007,7e-5 0.0158,0.003 0.02,0.006 0.004,0.003 0.0106,0.006 0.0142,0.006 0.004,0 0.008,0.003 0.009,0.006 0.001,0.003 0.007,0.006 0.0137,0.006 0.007,0 0.0124,0.003 0.0137,0.006 0.001,0.003 0.006,0.006 0.0102,0.006 0.009,0 0.0236,0.0131 0.0236,0.0219 0,0.005 0.003,0.006 0.0137,0.004 0.0122,-0.002 0.0137,-0.002 0.0137,0.006 0,0.007 0.002,0.008 0.01,0.007 0.007,-10e-4 0.0111,2.5e-4 0.0138,0.005 0.002,0.004 0.006,0.007 0.009,0.007 0.003,0 0.006,0.003 0.008,0.006 0.001,0.003 0.006,0.006 0.01,0.006 0.004,0 0.0135,0.005 0.0205,0.0117 0.007,0.006 0.0156,0.0117 0.019,0.0117 0.003,0 0.0105,0.005 0.0157,0.0116 0.006,0.007 0.0135,0.0116 0.0189,0.0117 0.006,1.1e-4 0.0166,0.007 0.0282,0.0187 0.0104,0.0102 0.0211,0.0205 0.0239,0.0229 0.003,0.002 0.009,0.009 0.0138,0.0147 0.005,0.006 0.0123,0.0103 0.0167,0.0103 0.005,0 0.0181,0.0101 0.0315,0.0234 0.0129,0.0129 0.0245,0.0234 0.0257,0.0234 0.005,0 0.0326,0.031 0.0326,0.037 0,0.007 0.0184,0.0258 0.0504,0.0525 0.0101,0.008 0.016,0.0167 0.016,0.0223 0,0.005 0.005,0.0131 0.0137,0.0198 0.008,0.006 0.0137,0.0137 0.0137,0.017 0,0.003 0.005,0.0111 0.0115,0.0172 0.006,0.006 0.0126,0.0157 0.0138,0.0213 0.001,0.006 0.008,0.0151 0.0158,0.0211 0.007,0.006 0.0136,0.014 0.0136,0.018 0,0.004 0.003,0.009 0.006,0.012 0.003,0.003 0.006,0.009 0.006,0.0143 0,0.005 0.003,0.0105 0.007,0.0119 0.0106,0.004 0.0208,0.0162 0.0208,0.0247 0,0.004 0.003,0.009 0.006,0.0102 0.003,10e-4 0.006,0.007 0.006,0.012 0,0.006 0.003,0.0104 0.008,0.0118 0.006,0.001 0.008,0.005 0.008,0.0134 0,0.007 0.002,0.0123 0.006,0.0136 0.004,10e-4 0.006,0.008 0.006,0.0178 0,0.0123 0.002,0.016 0.008,0.0176 0.005,10e-4 0.008,0.005 0.008,0.0111 0,0.005 0.002,0.0114 0.005,0.0142 0.003,0.003 0.006,0.01 0.008,0.0159 10e-4,0.006 0.004,0.0107 0.006,0.0107 0.002,0 0.005,0.007 0.006,0.0154 10e-4,0.008 0.005,0.0175 0.008,0.02 0.003,0.003 0.006,0.0103 0.006,0.0173 0,0.007 0.003,0.0149 0.006,0.0176 0.003,0.003 0.006,0.009 0.006,0.0141 0,0.005 0.004,0.0114 0.008,0.0141 0.005,0.003 0.008,0.009 0.008,0.0149 0,0.006 0.003,0.0134 0.006,0.0176 0.003,0.004 0.006,0.0133 0.006,0.0203 7e-5,0.007 0.003,0.016 0.008,0.0203 0.005,0.005 0.009,0.0159 0.0103,0.0283 0.001,0.0114 0.005,0.0241 0.008,0.0284 0.003,0.004 0.005,0.0133 0.005,0.0201 0,0.009 0.002,0.0129 0.008,0.0144 0.007,0.002 0.008,0.005 0.008,0.0234 0,0.0142 0.002,0.023 0.006,0.0262 0.004,0.003 0.006,0.012 0.006,0.026 0,0.0162 0.002,0.0217 0.007,0.0236 0.008,0.003 0.0208,0.0156 0.0208,0.0207 0,0.002 0.003,0.004 0.006,0.004 0.003,0 0.006,0.003 0.006,0.006 0,0.003 0.003,0.007 0.006,0.008 0.003,0.001 0.0146,0.0105 0.0248,0.0204 0.0102,0.01 0.0276,0.0263 0.0387,0.0364 0.0111,0.0101 0.0201,0.0203 0.0201,0.0226 0,0.002 0.003,0.005 0.006,0.007 0.004,10e-4 0.0137,0.01 0.0227,0.0188 0.009,0.009 0.0212,0.0176 0.027,0.019 0.006,10e-4 0.0182,0.0105 0.0274,0.0201 0.009,0.01 0.0179,0.0175 0.0194,0.0175 0.004,0 0.0182,0.0149 0.0183,0.0186 7e-5,0.003 0.0175,0.0205 0.0208,0.0205 0.001,0 0.0128,0.0106 0.0257,0.0234 0.0129,0.0129 0.0244,0.0234 0.0256,0.0234 0.003,0 0.0177,0.0152 0.0178,0.0186 8e-5,0.003 0.0175,0.0205 0.0208,0.0205 0.001,0 0.0109,0.008 0.0215,0.0186 0.027,0.0259 0.0284,0.0268 0.0457,0.03 0.008,0.002 0.0165,0.005 0.0178,0.007 0.001,0.002 0.0127,0.005 0.0254,0.006 0.0127,10e-4 0.0242,0.004 0.0257,0.006 0.001,0.002 0.0133,0.005 0.0264,0.006 0.0131,9.5e-4 0.0237,0.003 0.0237,0.005 0,0.002 0.0106,0.003 0.0236,0.003 0.0173,0 0.0242,0.002 0.0258,0.006 0.002,0.004 0.008,0.006 0.0214,0.006 0.0144,0 0.0191,0.001 0.0191,0.006 0,0.004 0.005,0.006 0.0195,0.006 0.0107,0 0.0195,0.002 0.0195,0.004 0,0.002 0.006,0.004 0.0129,0.004 0.007,0 0.015,0.002 0.0176,0.005 0.003,0.003 0.005,0.003 0.005,6e-4 0,-0.002 -0.004,-0.006 -0.009,-0.008 -0.008,-0.004 -0.008,-0.004 0.004,-0.005 l 0.0127,-2.6e-4 v -0.0332 c 0,-0.0306 6.1e-4,-0.0332 0.008,-0.0332 0.004,0 0.008,0.003 0.008,0.006 0,0.003 0.003,0.006 0.008,0.006 0.008,0 0.008,0.003 0.008,0.31641 v 0.31641 h -0.0117 c -0.008,0 -0.0117,-0.002 -0.0117,-0.006 z"
       id="path5652"
       inkscape:connector-curvature="0"
       transform="matrix(0.26458333,0,0,0.26458333,0,-105.83333)" />
    <path
       style="fill:#ffffff;fill-opacity:1;fill-rule:nonzero;stroke:none;stroke-width:0.21091536;stroke-linecap:round;stroke-linejoin:round;stroke-miterlimit:4;stroke-dasharray:none;stroke-opacity:1;paint-order:markers stroke fill"
       d="m 198.24981,788.72122 c -0.0185,-0.0147 -0.12532,-0.11568 -0.14738,-0.13931 -0.0314,-0.0336 -0.10564,-0.10767 -0.17515,-0.17469 -0.0465,-0.0449 -0.0674,-0.0676 -0.0674,-0.0734 0,-0.005 -0.003,-0.0135 -0.006,-0.0196 -0.003,-0.006 -0.008,-0.0232 -0.0118,-0.0379 -0.003,-0.0147 -0.007,-0.0329 -0.009,-0.0405 -0.002,-0.008 -0.005,-0.0172 -0.007,-0.0215 -0.002,-0.004 -0.005,-0.0165 -0.007,-0.0272 -0.002,-0.0107 -0.005,-0.0229 -0.008,-0.0272 -0.003,-0.004 -0.005,-0.0105 -0.006,-0.0138 -1e-5,-0.003 -0.003,-0.011 -0.006,-0.0172 -0.003,-0.006 -0.006,-0.0147 -0.006,-0.0191 0,-0.007 -0.007,-0.0259 -0.0219,-0.055 -0.003,-0.006 -0.005,-0.0159 -0.005,-0.0217 0,-0.006 -0.003,-0.0141 -0.006,-0.0182 -0.003,-0.004 -0.006,-0.0124 -0.006,-0.0183 -7e-5,-0.006 -0.004,-0.0143 -0.008,-0.0186 -0.004,-0.004 -0.008,-0.009 -0.008,-0.0115 0,-0.004 -0.0157,-0.0344 -0.0248,-0.0474 -0.004,-0.005 -0.006,-0.014 -0.006,-0.0198 0,-0.006 -0.002,-0.0116 -0.004,-0.0128 -0.005,-0.003 -0.0199,-0.0346 -0.0199,-0.0422 0,-0.003 -0.004,-0.007 -0.008,-0.009 -0.004,-10e-4 -0.008,-0.005 -0.008,-0.009 -1.2e-4,-0.004 -0.005,-0.0154 -0.0115,-0.0261 -0.006,-0.0107 -0.0138,-0.0248 -0.0168,-0.0312 -0.003,-0.006 -0.009,-0.0151 -0.0139,-0.0192 -0.005,-0.004 -0.008,-0.01 -0.008,-0.0121 0,-0.003 -0.004,-0.008 -0.008,-0.0117 -0.004,-0.004 -0.008,-0.009 -0.008,-0.0116 0,-0.002 -0.005,-0.0105 -0.0119,-0.0178 -0.007,-0.007 -0.0128,-0.0172 -0.014,-0.022 -0.001,-0.005 -0.007,-0.0116 -0.0119,-0.0151 -0.005,-0.003 -0.0124,-0.0127 -0.0156,-0.0204 -0.003,-0.008 -0.0149,-0.0225 -0.026,-0.0328 l -0.0202,-0.0188 0.0123,-7e-5 c 0.008,-4e-5 0.0154,0.003 0.0215,0.01 0.005,0.005 0.0114,0.01 0.0141,0.01 0.003,3e-5 0.005,0.004 0.005,0.008 0,0.007 0.0276,0.0392 0.0339,0.0392 0.005,0 0.0208,0.0207 0.0208,0.028 0,0.008 0.0105,0.02 0.0208,0.024 0.004,10e-4 0.007,0.007 0.007,0.012 0,0.005 0.003,0.0105 0.006,0.0117 0.003,10e-4 0.006,0.005 0.006,0.008 0,0.003 0.003,0.006 0.006,0.006 0.004,0 0.006,0.004 0.006,0.01 0,0.006 0.003,0.0114 0.008,0.0138 0.004,0.002 0.008,0.007 0.008,0.0112 0,0.004 0.005,0.0122 0.0116,0.0184 0.006,0.006 0.0117,0.0134 0.0117,0.0158 6e-5,0.002 0.004,0.009 0.008,0.0143 0.004,0.005 0.008,0.0125 0.008,0.0157 0,0.003 0.003,0.008 0.006,0.0104 0.003,0.003 0.006,0.009 0.007,0.0151 8.2e-4,0.007 0.003,0.0103 0.008,0.01 0.005,-4.1e-4 0.007,0.002 0.007,0.0109 0,0.007 0.002,0.0124 0.006,0.0137 0.003,10e-4 0.006,0.007 0.006,0.0117 0,0.005 0.003,0.0105 0.006,0.0117 0.004,10e-4 0.006,0.007 0.006,0.0155 0,0.008 0.003,0.0163 0.008,0.021 0.004,0.004 0.009,0.0122 0.0102,0.0176 0.001,0.005 0.004,0.01 0.006,0.01 0.002,0 0.004,0.006 0.006,0.0137 0.001,0.008 0.005,0.0137 0.008,0.0137 0.006,0 0.01,0.009 0.01,0.0221 0,0.005 0.003,0.0124 0.006,0.0156 0.003,0.003 0.006,0.0126 0.006,0.0208 0,0.009 0.002,0.0157 0.005,0.017 0.003,10e-4 0.007,0.009 0.008,0.0166 0.001,0.008 0.005,0.0171 0.008,0.0201 0.003,0.003 0.006,0.0117 0.006,0.0193 0,0.008 0.003,0.0163 0.006,0.0195 0.003,0.003 0.006,0.0109 0.006,0.017 0,0.006 0.003,0.0141 0.007,0.0177 0.004,0.004 0.007,0.0152 0.008,0.0286 0.001,0.0121 0.004,0.0238 0.007,0.026 0.003,0.002 0.006,0.0126 0.007,0.0232 0.001,0.0106 0.004,0.0203 0.006,0.0215 0.002,10e-4 0.005,0.013 0.006,0.0263 0.002,0.0151 0.005,0.0249 0.008,0.0263 0.003,0.001 0.006,0.008 0.006,0.0159 0,0.0143 0.002,0.0167 0.0506,0.0616 0.009,0.008 0.0158,0.0164 0.0158,0.0186 0,0.002 0.003,0.004 0.006,0.004 0.003,0 0.006,0.003 0.006,0.006 0,0.003 0.002,0.006 0.004,0.006 0.002,0 0.0125,0.008 0.0232,0.0186 0.0107,0.0102 0.027,0.0254 0.0363,0.0337 0.0466,0.042 0.0852,0.0811 0.0852,0.0865 0,0.003 0.003,0.007 0.006,0.008 0.003,10e-4 0.006,0.005 0.006,0.008 0,0.003 0.003,0.005 0.006,0.005 0.003,0 0.006,0.003 0.006,0.006 0,0.003 0.002,0.006 0.004,0.006 0.002,0 0.0123,0.009 0.0229,0.0195 0.0106,0.0107 0.0202,0.0195 0.0215,0.0195 0.001,0 0.0146,0.0123 0.0298,0.0273 0.0273,0.0271 0.0294,0.0373 0.003,0.0166 z"
       id="path5654"
       inkscape:connector-curvature="0"
       transform="matrix(0.26458333,0,0,0.26458333,0,-105.83333)" />
    <path
       style="fill:#ffffff;fill-opacity:1;fill-rule:nonzero;stroke:none;stroke-width:0.21091536;stroke-linecap:round;stroke-linejoin:round;stroke-miterlimit:4;stroke-dasharray:none;stroke-opacity:1;paint-order:markers stroke fill"
       d="m 199.57621,789.97689 c -0.0126,-0.0114 -0.0331,-0.0308 -0.0454,-0.0431 -0.0204,-0.0203 -0.0225,-0.0239 -0.0225,-0.0391 0,-0.009 -0.003,-0.0202 -0.006,-0.0243 -0.003,-0.004 -0.006,-0.0158 -0.006,-0.0259 -9e-5,-0.0129 -0.002,-0.0198 -0.007,-0.0234 -0.007,-0.005 -0.0126,-0.0211 -0.022,-0.0622 -0.003,-0.0121 -0.008,-0.0261 -0.0115,-0.0312 -0.004,-0.005 -0.006,-0.0128 -0.006,-0.0171 -1e-5,-0.004 -0.003,-0.013 -0.006,-0.0191 -0.003,-0.006 -0.006,-0.0141 -0.006,-0.0177 0,-0.004 -0.003,-0.0108 -0.007,-0.0162 -0.0104,-0.0148 -0.0206,-0.036 -0.0206,-0.0428 0,-0.003 -0.004,-0.0126 -0.008,-0.0206 -0.004,-0.008 -0.008,-0.018 -0.008,-0.0221 0,-0.004 -0.002,-0.01 -0.005,-0.0127 -0.003,-0.003 -0.009,-0.0155 -0.0146,-0.0281 -0.005,-0.0126 -0.0116,-0.0237 -0.0141,-0.0247 -0.003,-9.8e-4 -0.006,-0.009 -0.007,-0.0179 -0.001,-0.009 -0.005,-0.0185 -0.008,-0.0215 -0.003,-0.003 -0.005,-0.008 -0.005,-0.0121 0,-0.004 -0.004,-0.01 -0.008,-0.0134 -0.004,-0.004 -0.008,-0.009 -0.008,-0.0121 0,-0.003 -0.003,-0.008 -0.006,-0.0103 -0.003,-0.003 -0.006,-0.008 -0.006,-0.012 0,-0.004 -0.006,-0.0121 -0.0137,-0.0181 -0.008,-0.006 -0.0137,-0.0131 -0.0137,-0.0158 0,-0.007 -0.0126,-0.0295 -0.0251,-0.0446 -0.01,-0.0116 -0.0274,-0.0379 -0.0399,-0.0589 -0.002,-0.004 -0.01,-0.0131 -0.0166,-0.02 -0.007,-0.007 -0.0122,-0.0154 -0.0122,-0.0189 0,-0.003 -0.0133,-0.0182 -0.0296,-0.0328 -0.0163,-0.0146 -0.0323,-0.0318 -0.0356,-0.0384 -0.003,-0.007 -0.0132,-0.0194 -0.022,-0.0286 -0.0257,-0.0266 -0.007,-0.0204 0.0208,0.007 0.013,0.0129 0.0248,0.0234 0.026,0.0234 10e-4,0 0.009,0.007 0.0174,0.0152 0.01,0.01 0.0152,0.0187 0.0152,0.0254 0,0.006 0.002,0.0102 0.005,0.0102 0.003,0 0.0121,0.008 0.0214,0.0176 0.009,0.01 0.0179,0.0176 0.0193,0.0176 0.006,0 0.021,0.0184 0.0211,0.026 4e-5,0.005 0.006,0.0138 0.0137,0.0204 0.008,0.007 0.0137,0.0144 0.0137,0.0172 0,0.003 0.005,0.0103 0.0117,0.0165 0.006,0.006 0.0117,0.0145 0.0117,0.0186 0,0.004 0.007,0.0137 0.0156,0.0214 0.009,0.008 0.0156,0.017 0.0156,0.0207 0,0.004 0.003,0.009 0.006,0.0116 0.003,0.003 0.006,0.009 0.006,0.0143 0,0.005 0.003,0.0105 0.007,0.0119 0.0106,0.004 0.0208,0.0162 0.0208,0.0247 0,0.004 0.003,0.009 0.006,0.0102 0.003,10e-4 0.006,0.007 0.006,0.012 0,0.006 0.003,0.0104 0.008,0.0118 0.006,0.001 0.008,0.005 0.008,0.0134 0,0.007 0.002,0.0123 0.006,0.0136 0.004,0.002 0.006,0.008 0.006,0.0194 0,0.0146 10e-4,0.0172 0.008,0.0172 0.006,0 0.008,0.003 0.008,0.009 0,0.005 0.002,0.0118 0.005,0.0147 0.003,0.003 0.006,0.01 0.008,0.0159 0.001,0.006 0.004,0.0107 0.006,0.0107 0.002,0 0.005,0.008 0.006,0.0179 10e-4,0.01 0.005,0.0188 0.008,0.0199 0.003,0.001 0.005,0.008 0.005,0.015 0,0.007 0.003,0.0156 0.006,0.0188 0.003,0.003 0.006,0.008 0.006,0.0117 0,0.01 0.004,0.0182 0.01,0.0182 0.003,0 0.006,0.007 0.007,0.0165 10e-4,0.009 0.004,0.0171 0.006,0.0179 0.002,7.6e-4 0.004,0.007 0.004,0.0147 0,0.008 0.003,0.0164 0.007,0.0207 0.004,0.004 0.009,0.0162 0.0103,0.0283 0.002,0.0115 0.005,0.0244 0.008,0.0286 0.003,0.004 0.005,0.0133 0.005,0.0201 0,0.009 0.002,0.0129 0.008,0.0144 0.007,0.002 0.008,0.005 0.008,0.0234 0,0.0142 0.002,0.023 0.006,0.0262 0.004,0.003 0.006,0.012 0.006,0.026 0,0.0162 0.002,0.0217 0.007,0.0236 0.008,0.003 0.0208,0.0156 0.0208,0.0207 0,0.002 0.003,0.004 0.006,0.004 0.003,0 0.006,0.003 0.006,0.006 0,0.003 -6.6e-4,0.006 -10e-4,0.006 -8e-4,0 -0.0118,-0.009 -0.0244,-0.0207 z"
       id="path5656"
       inkscape:connector-curvature="0"
       transform="matrix(0.26458333,0,0,0.26458333,0,-105.83333)" />
    <path
       style="fill:#ffffff;fill-opacity:1;fill-rule:nonzero;stroke:#000001;stroke-width:0.05291667;stroke-linecap:round;stroke-linejoin:round;stroke-miterlimit:4;stroke-dasharray:none;stroke-opacity:1;paint-order:markers stroke fill"
       d="m 8.031646,153.39921 c -0.195841,-0.0195 -0.2374511,-0.0257 -0.2491619,-0.0368 -0.00654,-0.006 -0.035709,-0.011 -0.064833,-0.011 -0.029149,0 -0.056438,-0.006 -0.060683,-0.0125 -0.00428,-0.007 -0.026704,-0.0124 -0.049954,-0.0124 -0.023229,0 -0.045709,-0.006 -0.049954,-0.0125 -0.00428,-0.007 -0.02392,-0.0124 -0.043717,-0.0124 -0.019806,0 -0.039479,-0.006 -0.04371,-0.0125 -0.00428,-0.007 -0.021521,-0.0125 -0.038363,-0.0125 -0.016849,0 -0.041836,-0.006 -0.055467,-0.0124 -0.01363,-0.007 -0.035965,-0.0182 -0.049616,-0.025 -0.01363,-0.007 -0.033394,-0.0124 -0.043883,-0.0124 -0.010506,0 -0.028847,-0.005 -0.040769,-0.011 -0.011915,-0.006 -0.044166,-0.0211 -0.071646,-0.0329 -0.128199,-0.0551 -0.3201399,-0.15253 -0.3966638,-0.20117 -0.04644,-0.0296 -0.089993,-0.0537 -0.096791,-0.0537 -0.00682,0 -0.012341,-0.006 -0.012341,-0.0125 0,-0.007 -0.00845,-0.0125 -0.018731,-0.0125 -0.010292,0 -0.01878,-0.004 -0.01882,-0.009 -3.45e-5,-0.005 -0.01552,-0.019 -0.034338,-0.0307 -0.066887,-0.0418 -0.1503777,-0.10408 -0.2216767,-0.16561 -0.092726,-0.08 -0.3034685,-0.28992 -0.3457258,-0.3444 -0.017916,-0.0231 -0.043158,-0.0532 -0.056094,-0.067 -0.012949,-0.0137 -0.040211,-0.0473 -0.060595,-0.0748 -0.047604,-0.0641 -0.058644,-0.0781 -0.077682,-0.0992 -0.00857,-0.009 -0.015601,-0.0234 -0.015601,-0.0306 0,-0.007 -0.00558,-0.0134 -0.012473,-0.0134 -0.00688,0 -0.012473,-0.006 -0.012473,-0.0145 0,-0.008 -0.014057,-0.0327 -0.031204,-0.0552 -0.017186,-0.0225 -0.031204,-0.0468 -0.031204,-0.0542 0,-0.007 -0.00428,-0.0135 -0.00939,-0.0135 -0.00516,-5e-5 -0.015561,-0.0126 -0.023105,-0.0281 -0.046379,-0.0942 -0.097044,-0.18516 -0.1064448,-0.19097 -0.00599,-0.004 -0.010933,-0.0177 -0.010933,-0.0309 0,-0.0133 -0.00558,-0.0243 -0.012473,-0.0243 -0.00688,0 -0.012473,-0.011 -0.012473,-0.0243 0,-0.0133 -0.00516,-0.0274 -0.011529,-0.0313 -0.00634,-0.004 -0.015216,-0.0239 -0.019716,-0.0444 -0.00449,-0.0205 -0.013376,-0.0372 -0.019674,-0.0372 -0.00627,0 -0.011488,-0.011 -0.011488,-0.0251 0,-0.0251 -0.00303,-0.0328 -0.04158,-0.10992 -0.011489,-0.0229 -0.020833,-0.0547 -0.020833,-0.071 0,-0.0163 -0.00558,-0.0328 -0.012473,-0.0371 -0.00688,-0.004 -0.012514,-0.0202 -0.012563,-0.0349 -3.87e-5,-0.0151 -0.00849,-0.0433 -0.018731,-0.0631 -0.010247,-0.0196 -0.018647,-0.0544 -0.018647,-0.0772 0,-0.0229 -0.00483,-0.0444 -0.010719,-0.048 -0.00585,-0.004 -0.014106,-0.0354 -0.018303,-0.0707 -0.00428,-0.0352 -0.0129,-0.0705 -0.019378,-0.0783 -0.00647,-0.007 -0.01419,-0.0507 -0.017145,-0.0952 -0.00303,-0.0445 -0.012605,-0.11468 -0.021432,-0.15583 -0.020018,-0.0931 -0.010539,-0.77405 0.011057,-0.79559 0.00737,-0.007 0.013458,-0.0428 0.013458,-0.0788 0,-0.0359 0.00558,-0.0688 0.012473,-0.073 0.00688,-0.004 0.012473,-0.0326 0.012473,-0.063 0,-0.0305 0.00558,-0.0553 0.012473,-0.0553 0.00688,0 0.012473,-0.0193 0.012473,-0.0429 0,-0.0237 0.00503,-0.046 0.011101,-0.0498 0.00613,-0.004 0.013762,-0.0252 0.016972,-0.0474 0.00509,-0.0354 0.06393,-0.21199 0.097636,-0.29305 0.00641,-0.0155 0.017916,-0.0434 0.025594,-0.0623 0.00767,-0.0189 0.018903,-0.044 0.024994,-0.056 0.00606,-0.0122 0.011023,-0.03 0.011023,-0.0405 0,-0.011 0.00558,-0.0189 0.012473,-0.0189 0.00688,0 0.012473,-0.007 0.012473,-0.0176 0,-0.009 0.018606,-0.0504 0.04132,-0.0904 0.022721,-0.04 0.049396,-0.0911 0.059257,-0.11334 0.00986,-0.0222 0.022161,-0.0404 0.027351,-0.0404 0.00516,0 0.00943,-0.011 0.00943,-0.0249 0,-0.0137 0.00449,-0.025 0.00986,-0.025 0.00543,0 0.026276,-0.0281 0.046337,-0.0623 0.02006,-0.0341 0.040892,-0.0623 0.046337,-0.0623 0.00544,0 0.00986,-0.006 0.00986,-0.014 0,-0.0258 0.1133165,-0.17783 0.224806,-0.30169 0.1705425,-0.18944 0.308617,-0.31832 0.4745982,-0.44295 0.051518,-0.0386 0.09554,-0.0745 0.097832,-0.0796 0.00214,-0.005 0.010753,-0.009 0.018862,-0.009 0.0081,0 0.029839,-0.014 0.048369,-0.0311 0.018517,-0.0172 0.039735,-0.0311 0.047149,-0.0311 0.01239,0 0.072868,-0.0342 0.087528,-0.0495 0.0081,-0.008 0.085102,-0.0501 0.1873408,-0.10125 0.044647,-0.0224 0.083052,-0.0453 0.085344,-0.0509 0.00214,-0.006 0.014616,-0.009 0.027433,-0.009 0.012817,0 0.049706,-0.014 0.082003,-0.0311 0.032321,-0.0171 0.065673,-0.0311 0.074172,-0.0311 0.00849,0 0.031548,-0.008 0.051215,-0.0186 0.019674,-0.009 0.045612,-0.0188 0.057631,-0.0188 0.012004,-4e-5 0.021858,-0.006 0.021858,-0.0126 0,-0.007 0.018261,-0.0127 0.040596,-0.013 0.022334,-2.5e-4 0.054641,-0.008 0.071813,-0.0183 0.017186,-0.009 0.043944,-0.018 0.059491,-0.0183 0.015561,-2.4e-4 0.038026,-0.006 0.049954,-0.0123 0.011915,-0.006 0.048252,-0.0152 0.080721,-0.0194 0.032451,-0.004 0.062304,-0.013 0.066306,-0.0193 0.00387,-0.006 0.038026,-0.0122 0.075628,-0.0122 0.03759,0 0.08808,-0.008 0.1121884,-0.0183 0.095681,-0.0399 0.9405552,-0.0243 1.0199128,0.0189 0.011915,0.006 0.04391,0.0121 0.071075,0.0121 0.027178,0 0.052862,0.006 0.057107,0.0126 0.00428,0.007 0.027048,0.0124 0.050697,0.0124 0.023616,0 0.042973,0.006 0.042973,0.0126 0,0.007 0.019674,0.0124 0.043717,0.0124 0.02405,0 0.043711,0.005 0.043711,0.011 0,0.006 0.015478,0.0139 0.034337,0.0173 0.030908,0.006 0.1442347,0.044 0.2091981,0.071 0.075752,0.0313 0.1314739,0.0559 0.1866685,0.0827 0.033994,0.0165 0.069103,0.0299 0.078059,0.0299 0.00896,0 0.01629,0.006 0.01629,0.0124 0,0.007 0.00515,0.0126 0.011447,0.0126 0.00629,0 0.054236,0.0254 0.106517,0.0562 0.052289,0.0308 0.1005192,0.0562 0.1071952,0.0562 0.0067,0 0.01214,0.006 0.01214,0.0125 0,0.007 0.007,0.0124 0.0156,0.0124 0.0086,1e-5 0.03194,0.014 0.0519,0.0311 0.01999,0.0172 0.03999,0.0311 0.04448,0.0311 0.0045,0 0.01908,0.009 0.03241,0.0224 0.01334,0.0123 0.04441,0.0361 0.06909,0.053 0.113053,0.0769 0.369667,0.32041 0.498647,0.47309 0.03763,0.0445 0.07266,0.0829 0.07782,0.0853 0.0052,0.002 0.0094,0.011 0.0094,0.0198 0,0.008 0.01115,0.0257 0.02483,0.0382 0.01368,0.0123 0.04307,0.0511 0.06534,0.0861 0.02229,0.0349 0.04483,0.0655 0.0501,0.0678 0.0053,0.002 0.0096,0.0122 0.0096,0.0218 0,0.009 0.0043,0.0177 0.0095,0.0177 0.0052,0 0.01697,0.017 0.02614,0.0376 0.0092,0.0208 0.0232,0.0445 0.03117,0.0531 0.008,0.008 0.04519,0.0771 0.08276,0.15243 0.03759,0.0754 0.0727,0.13895 0.07805,0.14123 0.0054,0.001 0.0096,0.015 0.0096,0.0282 0,0.0242 0.0035,0.0333 0.04193,0.10664 0.01127,0.0217 0.02054,0.0511 0.02054,0.0655 0,0.0144 0.0056,0.0262 0.01247,0.0262 0.0069,0 0.01248,0.0134 0.01248,0.0297 0,0.0164 0.0085,0.0458 0.01864,0.0655 0.01025,0.0197 0.01869,0.0479 0.01872,0.0631 3.9e-5,0.015 0.0058,0.0308 0.01257,0.0349 0.0069,0.004 0.01247,0.0236 0.01247,0.0428 0,0.0193 0.0085,0.0552 0.01873,0.0799 0.01025,0.0247 0.01872,0.0645 0.01872,0.0887 0,0.0243 0.0049,0.044 0.01081,0.044 0.006,0 0.01354,0.0419 0.01684,0.093 0.0035,0.0511 0.0123,0.10062 0.02003,0.10992 0.0095,0.011 0.01483,0.1257 0.0164,0.3526 0.0021,0.3165 -0.0044,0.42069 -0.03896,0.60995 -0.0076,0.0412 -0.01685,0.0972 -0.0207,0.12466 -0.0039,0.0274 -0.01208,0.0551 -0.01826,0.0617 -0.0062,0.006 -0.01126,0.03 -0.01126,0.0523 0,0.0223 -0.0057,0.0438 -0.01247,0.048 -0.0069,0.004 -0.01248,0.0239 -0.01248,0.0436 0,0.0197 -0.0056,0.0394 -0.01247,0.0435 -0.0069,0.004 -0.01248,0.0231 -0.01248,0.0419 0,0.0188 -0.0047,0.0394 -0.01036,0.046 -0.0057,0.006 -0.01791,0.0371 -0.02721,0.068 -0.0094,0.0308 -0.02057,0.0617 -0.02512,0.0685 -0.0045,0.007 -0.02444,0.0517 -0.04432,0.0997 -0.07847,0.18954 -0.284381,0.55289 -0.342598,0.60458 -0.0039,0.004 -0.02806,0.0359 -0.05379,0.0721 -0.02571,0.0361 -0.06028,0.0812 -0.07681,0.0997 -0.01654,0.0186 -0.04208,0.0478 -0.05677,0.065 -0.147571,0.172 -0.372874,0.37513 -0.549541,0.49547 -0.03776,0.0258 -0.07056,0.051 -0.07285,0.0562 -0.0021,0.005 -0.0097,0.009 -0.0165,0.009 -0.0068,0 -0.02018,0.007 -0.02974,0.0156 -0.043323,0.0387 -0.055935,0.0467 -0.073954,0.0467 -0.010595,0 -0.019241,0.004 -0.019241,0.009 0,0.005 -0.010964,0.015 -0.024435,0.0218 -0.1310533,0.0661 -0.1948252,0.10103 -0.1983141,0.10895 -0.00214,0.005 -0.014617,0.009 -0.027351,0.009 -0.012776,0 -0.026407,0.005 -0.030307,0.011 -0.00387,0.006 -0.02392,0.0152 -0.044448,0.0197 -0.020537,0.005 -0.037337,0.0134 -0.037337,0.0197 0,0.006 -0.011315,0.011 -0.025159,0.011 -0.013844,0 -0.03489,0.005 -0.046831,0.0122 -0.032623,0.0179 -0.1010479,0.0441 -0.1778036,0.0683 -0.037763,0.0122 -0.079933,0.026 -0.093671,0.0314 -0.085081,0.0332 -0.3691351,0.0894 -0.5682646,0.11261 -0.1134058,0.0132 -0.5050848,0.0122 -0.6431983,-10e-4 z m 0.5994885,-0.78469 c 0.027476,-0.007 0.086486,-0.0179 0.1311355,-0.024 0.1009311,-0.0137 0.2201074,-0.0408 0.2322903,-0.0531 0.00503,-0.005 0.024002,-0.009 0.04218,-0.009 0.018131,0 0.043909,-0.008 0.057244,-0.0183 0.013334,-0.009 0.034166,-0.0185 0.046267,-0.0186 0.012129,-2.2e-4 0.031809,-0.005 0.043709,-0.011 0.011915,-0.006 0.041367,-0.019 0.065405,-0.0294 0.1632336,-0.0703 0.3994202,-0.19948 0.4100683,-0.22442 0.00214,-0.005 0.010719,-0.009 0.018731,-0.009 0.00801,0 0.031424,-0.014 0.052041,-0.0309 0.020618,-0.0171 0.043111,-0.0352 0.050022,-0.0405 0.1933604,-0.14778 0.4803784,-0.45527 0.5334034,-0.57142 0.0076,-0.0167 0.01855,-0.0302 0.02431,-0.0302 0.0058,0 0.01047,-0.006 0.01047,-0.0137 0,-0.007 0.01059,-0.0284 0.0235,-0.0467 0.03674,-0.0517 0.113881,-0.20151 0.113881,-0.22111 0,-0.009 0.0057,-0.0177 0.01247,-0.0177 0.0069,0 0.01248,-0.008 0.01248,-0.0189 0,-0.011 0.005,-0.0286 0.01103,-0.0405 0.0061,-0.0122 0.01664,-0.0356 0.02341,-0.0528 0.0069,-0.0171 0.01937,-0.0479 0.0279,-0.0686 0.03648,-0.0878 0.07938,-0.24344 0.101382,-0.36773 0.03896,-0.21987 0.04815,-0.62579 0.0171,-0.75415 -0.0099,-0.0411 -0.01819,-0.0983 -0.01831,-0.12704 -1.02e-4,-0.0288 -0.0059,-0.0558 -0.01269,-0.0599 -0.0069,-0.004 -0.01269,-0.0283 -0.01295,-0.0537 -2.11e-4,-0.0254 -0.0085,-0.06 -0.01831,-0.0772 -0.0098,-0.0171 -0.01805,-0.0463 -0.0183,-0.0648 -2.1e-4,-0.0185 -0.0061,-0.0369 -0.01294,-0.0412 -0.0069,-0.004 -0.01247,-0.0186 -0.01247,-0.032 0,-0.0134 -0.0054,-0.034 -0.01188,-0.046 -0.0065,-0.0122 -0.02007,-0.0412 -0.03005,-0.0652 -0.05401,-0.12978 -0.06365,-0.14958 -0.07288,-0.14958 -0.0055,0 -0.01004,-0.008 -0.01004,-0.0183 0,-0.0219 -0.06177,-0.1358 -0.07684,-0.14171 -0.0059,-0.001 -0.01059,-0.0149 -0.01059,-0.0281 0,-0.0132 -0.0044,-0.0238 -0.0097,-0.0238 -0.0053,0 -0.02024,-0.0197 -0.03318,-0.0435 -0.01294,-0.0241 -0.02829,-0.0436 -0.03407,-0.0436 -0.0058,0 -0.0105,-0.007 -0.0105,-0.0157 0,-0.008 -0.01266,-0.0297 -0.02812,-0.0467 -0.01548,-0.0171 -0.04466,-0.0534 -0.06488,-0.0809 -0.0399,-0.0542 -0.2856504,-0.3054 -0.29866,-0.3054 -0.00437,0 -0.03185,-0.0225 -0.061082,-0.05 -0.029191,-0.0276 -0.062944,-0.0532 -0.07496,-0.057 -0.012045,-0.004 -0.02186,-0.0122 -0.02186,-0.0186 0,-0.006 -0.00845,-0.0122 -0.018731,-0.0122 -0.010292,0 -0.018731,-0.006 -0.018731,-0.0125 0,-0.007 -0.00564,-0.0126 -0.012605,-0.0126 -0.00694,0 -0.036006,-0.017 -0.064639,-0.0375 -0.045358,-0.0328 -0.2403102,-0.1325 -0.3723803,-0.19045 -0.075132,-0.0329 -0.1940755,-0.0711 -0.2217799,-0.0711 -0.014617,0 -0.030005,-0.006 -0.03425,-0.0125 -0.00428,-0.007 -0.025933,-0.0126 -0.048197,-0.0126 -0.022244,0 -0.045819,-0.005 -0.052346,-0.011 -0.045839,-0.0434 -0.791909,-0.069 -0.8325114,-0.0284 -0.00819,0.008 -0.043278,0.0149 -0.077961,0.0149 -0.034675,4e-5 -0.07917,0.008 -0.098845,0.0186 -0.019674,0.009 -0.049535,0.0186 -0.066341,0.0186 -0.035153,0 -0.1543856,0.0358 -0.1720248,0.0517 -0.00654,0.006 -0.022079,0.011 -0.034503,0.011 -0.012473,0 -0.032409,0.005 -0.044338,0.0122 -0.011915,0.006 -0.041368,0.02 -0.065397,0.03 -0.1300383,0.0539 -0.1498725,0.0636 -0.1498725,0.0728 0,0.006 -0.00797,0.009 -0.017703,0.009 -0.022292,0 -0.0945,0.0404 -0.094603,0.053 -3.86e-5,0.005 -0.00805,0.009 -0.017794,0.009 -0.022292,0 -0.0945,0.0404 -0.094606,0.053 -3.44e-5,0.005 -0.00853,0.009 -0.018819,0.009 -0.010292,0 -0.018731,0.006 -0.018731,0.0124 0,0.007 -0.00745,0.0125 -0.016546,0.0125 -0.00908,0 -0.029749,0.014 -0.045888,0.0311 -0.016118,0.0172 -0.034724,0.0311 -0.04132,0.0311 -0.00662,0 -0.023961,0.0127 -0.038576,0.0281 -0.014616,0.0155 -0.046179,0.0431 -0.070125,0.0615 -0.061394,0.0471 -0.1122276,0.0929 -0.1122276,0.10124 0,0.004 -0.03232,0.0402 -0.071813,0.081 -0.081232,0.0835 -0.1692558,0.18672 -0.1767279,0.20714 -0.00255,0.007 -0.0087,0.0165 -0.013245,0.0198 -0.018993,0.0144 -0.1227717,0.17301 -0.150862,0.23061 -0.016718,0.0343 -0.033649,0.0651 -0.037639,0.0686 -0.013072,0.011 -0.074273,0.14166 -0.074273,0.15827 0,0.008 -0.00558,0.0162 -0.012473,0.0162 -0.00688,0 -0.012473,0.014 -0.012473,0.0311 0,0.0172 -0.00558,0.0311 -0.012473,0.0311 -0.00688,0 -0.012473,0.0169 -0.012473,0.0373 0,0.0206 -0.00558,0.0373 -0.012473,0.0373 -0.00688,0 -0.012473,0.011 -0.012473,0.0251 0,0.0139 -0.00503,0.0348 -0.011146,0.0467 -0.00613,0.0122 -0.019633,0.0525 -0.030053,0.0902 -0.017875,0.0648 -0.024947,0.0961 -0.058988,0.26175 -0.021646,0.10542 -0.030437,0.55546 -0.012177,0.62329 0.00832,0.0308 0.019633,0.0925 0.025207,0.13712 0.013844,0.11151 0.03682,0.21579 0.050643,0.22998 0.00634,0.006 0.011529,0.0302 0.011529,0.053 0,0.0227 0.00558,0.0411 0.012473,0.0411 0.00688,0 0.012473,0.013 0.012473,0.0288 0,0.0158 0.00823,0.0396 0.018344,0.053 0.010083,0.0133 0.018517,0.0365 0.018731,0.0514 2.232e-4,0.015 0.0053,0.0302 0.011275,0.034 0.00599,0.004 0.014575,0.0251 0.019116,0.0474 0.00647,0.032 0.010809,0.0367 0.020151,0.0221 0.00716,-0.011 0.012004,-0.27471 0.012129,-0.66067 2.446e-4,-0.73083 -0.00303,-0.70559 0.099612,-0.75727 0.053035,-0.0268 0.069619,-0.0281 0.3434589,-0.0277 0.2523775,2.3e-4 0.2938668,0.004 0.3376847,0.0231 0.082546,0.0378 0.098219,0.0645 0.1057502,0.17998 0.00606,0.0925 0.00896,0.10175 0.031637,0.0996 0.033905,-0.004 0.2946254,-0.0599 0.3866715,-0.084 0.1560318,-0.0408 0.2631842,-0.0235 0.905975,0.14876 0.1958674,0.0525 0.1603188,0.059 0.4081947,-0.0761 0.1223823,-0.0668 0.2313691,-0.12877 0.242184,-0.13789 0.010798,-0.008 0.056288,-0.0255 0.1010397,-0.0366 0.1181683,-0.029 0.1973716,-0.011 0.3127622,0.0723 0.017745,0.0129 0.036524,0.007 0.1124034,-0.0301 0.050099,-0.025 0.112524,-0.049 0.1387269,-0.0533 0.07066,-0.0122 0.1751148,0.0147 0.2430362,0.0614 0.05809,0.0399 0.062,0.0407 0.125327,0.0277 0.08993,-0.0184 0.188533,0.004 0.258606,0.0567 0.149157,0.11394 0.150092,0.32047 0.0017,0.42742 -0.06343,0.0458 -0.256895,0.16867 -0.333086,0.21154 -0.03091,0.0175 -0.092728,0.0545 -0.1373806,0.0827 -0.044651,0.0282 -0.1430046,0.0879 -0.2185638,0.1328 -0.07556,0.0449 -0.1570522,0.0938 -0.1810954,0.10871 -0.092719,0.0572 -0.1767494,0.10615 -0.182172,0.10615 -0.00303,0 -0.026621,0.0132 -0.052256,0.029 -0.088647,0.0553 -0.3592808,0.19076 -0.4729611,0.23656 -0.09334,0.0375 -0.1299005,0.046 -0.2006208,0.046 -0.084336,0 -0.3581658,-0.0311 -0.3772329,-0.0429 -0.0053,-0.004 -0.1009535,-0.0202 -0.2126575,-0.0375 -0.1116995,-0.0175 -0.2071709,-0.0342 -0.2121517,-0.0372 -0.00497,-0.004 -0.090139,-0.0198 -0.1892401,-0.0373 -0.099103,-0.0176 -0.2167172,-0.0401 -0.2613668,-0.0503 -0.044647,-0.009 -0.1156305,-0.0221 -0.1577374,-0.0264 l -0.076563,-0.008 -0.00509,0.0904 c -0.0047,0.0824 -0.00857,0.0933 -0.043944,0.12491 -0.022852,0.0205 -0.06528,0.0402 -0.1031603,0.0484 -0.080199,0.0172 -0.5122179,0.0176 -0.5861743,4e-4 -0.030093,-0.007 -0.057217,-0.009 -0.060263,-0.007 -0.00627,0.006 0.060124,0.11163 0.074398,0.11795 0.00516,9.9e-4 0.00939,0.011 0.00939,0.0201 0,0.008 0.014057,0.0309 0.031204,0.0494 0.017186,0.0185 0.031204,0.0382 0.031204,0.0437 0,0.005 0.018261,0.0294 0.040596,0.0531 0.022334,0.0237 0.055371,0.0623 0.073433,0.086 0.062372,0.0814 0.2202626,0.23014 0.3325536,0.3135 0.039439,0.0294 0.074541,0.0562 0.077978,0.0596 0.016077,0.0164 0.1508325,0.0998 0.1611291,0.0998 0.00641,0 0.013501,0.004 0.015815,0.009 0.00214,0.005 0.071604,0.0425 0.1540348,0.0827 0.082428,0.0401 0.1596282,0.078 0.1715575,0.0839 0.011915,0.006 0.032664,0.011 0.046096,0.011 0.013416,0 0.027861,0.006 0.032147,0.0125 0.00428,0.007 0.021094,0.0125 0.037467,0.0125 0.016373,0 0.033222,0.006 0.037467,0.0124 0.00428,0.007 0.023919,0.0125 0.043717,0.0125 0.019806,0 0.039479,0.006 0.043709,0.0124 0.00428,0.007 0.028764,0.0126 0.05444,0.0126 0.025719,0 0.052063,0.005 0.058589,0.011 0.038067,0.0361 0.6381835,0.0662 0.7487344,0.0374 z m -1.6245063,-1.26506 c 0.017359,-0.0174 0.019633,-0.0989 0.019633,-0.70805 0,-0.51885 -0.00387,-0.69213 -0.015001,-0.70342 -0.010797,-0.011 -0.096208,-0.015 -0.3055479,-0.015 -0.2744874,0 -0.2912784,9.9e-4 -0.3034909,0.0241 -0.00845,0.0158 -0.012949,0.25801 -0.012949,0.70022 0,0.61161 0.00214,0.67825 0.02066,0.69889 0.01886,0.0209 0.045213,0.0229 0.2988484,0.0229 0.2362425,0 0.2811444,-0.002 0.2978106,-0.0196 z m 1.8493121,-0.0774 c 0.1184814,-0.054 0.3980188,-0.20373 0.555778,-0.29773 0.1369179,-0.0816 0.1371832,-0.0817 0.2091342,-0.12581 0.03635,-0.0223 0.068464,-0.0405 0.071337,-0.0405 0.00689,0 0.3828615,-0.23098 0.5188445,-0.31877 0.03091,-0.0199 0.07095,-0.0437 0.08897,-0.0529 0.01805,-0.008 0.04873,-0.0331 0.06824,-0.0535 0.03005,-0.0313 0.03546,-0.0472 0.03546,-0.10456 0,-0.0765 -0.02974,-0.12076 -0.10174,-0.15136 -0.09098,-0.0387 -0.116802,-0.0288 -0.601618,0.23219 -0.191581,0.1031 -0.2182435,0.11419 -0.2455406,0.10176 -0.021819,-0.009 -0.030603,-0.0239 -0.030521,-0.0484 1.068e-4,-0.0388 -0.01423,-0.0297 0.2996409,-0.19326 0.1064714,-0.0555 0.2034205,-0.107 0.2154401,-0.1143 0.046517,-0.0285 0.017912,-0.06 -0.069461,-0.0763 -0.061888,-0.011 -0.1120263,0.008 -0.3534807,0.13926 -0.2143981,0.11639 -0.2523898,0.12955 -0.2837809,0.0982 -0.042781,-0.0427 -0.024946,-0.0647 0.1123223,-0.13752 0.051581,-0.0275 0.086958,-0.0538 0.083648,-0.0624 -0.00891,-0.0232 -0.1019094,-0.046 -0.1524523,-0.0373 -0.057851,0.009 -0.419023,0.20854 -0.4238749,0.23314 -0.00255,0.0132 0.016463,0.0229 0.06652,0.0341 0.1608756,0.0359 0.2857567,0.11431 0.3311693,0.208 0.039479,0.0814 0.029749,0.19802 -0.022548,0.27102 -0.045068,0.063 -0.1471112,0.12719 -0.2188866,0.13795 -0.04974,0.007 -0.3386742,-0.0121 -0.3581057,-0.0236 -0.00497,-0.002 -0.1236725,-0.0171 -0.2639125,-0.0311 -0.3011326,-0.0301 -0.306727,-0.0311 -0.3232643,-0.0621 -0.017145,-0.032 -0.00387,-0.0617 0.03108,-0.0706 0.03039,-0.007 0.3809452,0.0247 0.4868068,0.0446 0.104327,0.0199 0.3650927,0.0393 0.4111221,0.0307 0.058665,-0.011 0.1204962,-0.0588 0.1473993,-0.11407 0.027648,-0.0567 0.02782,-0.0786 8.268e-4,-0.13448 -0.040079,-0.0839 -0.1392284,-0.12778 -0.4659094,-0.20633 -0.058388,-0.014 -0.1209724,-0.0313 -0.1390747,-0.0383 -0.018089,-0.007 -0.091162,-0.0268 -0.1623584,-0.0439 -0.071196,-0.0171 -0.1968921,-0.0478 -0.2793232,-0.0683 -0.2669685,-0.0662 -0.2987194,-0.0724 -0.3684322,-0.0727 -0.037763,-9e-5 -0.1024152,0.007 -0.1436263,0.017 -0.041195,0.009 -0.1423789,0.0317 -0.2248101,0.0497 -0.082431,0.0179 -0.1625176,0.038 -0.177971,0.0446 l -0.028123,0.0122 v 0.41702 c 0,0.38651 0.00173,0.41747 0.02186,0.42316 0.012005,0.004 0.064005,0.0127 0.1155236,0.0205 0.051518,0.007 0.1105299,0.0194 0.1311397,0.0257 0.020618,0.006 0.1189615,0.0258 0.2185603,0.0437 0.099605,0.0179 0.2738317,0.0491 0.3871735,0.0694 0.4178741,0.0749 0.4922252,0.0848 0.6057297,0.0812 0.1009494,-0.004 0.1238612,-0.008 0.22481,-0.0549 z"
       id="path5670"
       inkscape:connector-curvature="0" />
    <path
       style="fill:#ffffff;fill-opacity:1;fill-rule:nonzero;stroke:#000001;stroke-width:0.05291667;stroke-linecap:round;stroke-linejoin:round;stroke-miterlimit:4;stroke-dasharray:none;stroke-opacity:1;paint-order:markers stroke fill"
       d="m 8.5093269,149.72048 c -0.011237,-0.008 -0.02212,-0.0352 -0.024264,-0.0592 -0.00387,-0.0421 -0.00606,-0.044 -0.072513,-0.0573 -0.1369778,-0.0272 -0.247821,-0.10676 -0.279966,-0.20089 -0.029536,-0.0864 -0.026105,-0.12594 0.012431,-0.14346 0.045089,-0.0205 0.071393,-4e-4 0.085569,0.0654 0.016077,0.0746 0.08718,0.14198 0.1707994,0.16201 0.03961,0.009 0.067554,0.011 0.074951,0.004 0.00676,-0.007 0.010325,-0.10186 0.00836,-0.22232 l -0.00345,-0.21056 -0.094935,-0.0263 c -0.052213,-0.0145 -0.1152019,-0.0388 -0.1399782,-0.054 -0.1690849,-0.10433 -0.1773495,-0.30891 -0.017876,-0.44224 0.048079,-0.0403 0.077961,-0.0536 0.1561171,-0.0701 0.096445,-0.0205 0.096668,-0.0206 0.1004819,-0.0634 0.00857,-0.096 0.1148249,-0.0951 0.1148249,5.8e-4 0,0.0438 0.00647,0.048 0.1068941,0.069 0.131358,0.0274 0.2344253,0.11895 0.2544261,0.22575 0.012514,0.0669 0.00214,0.0979 -0.037205,0.1104 -0.036696,0.0122 -0.057981,-0.0122 -0.080122,-0.0877 -0.012128,-0.0415 -0.031893,-0.0765 -0.052512,-0.0926 -0.041967,-0.0329 -0.1648323,-0.0696 -0.1806026,-0.0538 -0.00641,0.006 -0.010031,0.097 -0.0081,0.20326 l 0.00345,0.19172 0.075145,0.0258 c 0.1870757,0.0643 0.2611691,0.12909 0.2800777,0.24506 0.025933,0.15911 -0.037467,0.27207 -0.1833889,0.32673 -0.046426,0.0174 -0.1054811,0.0349 -0.1312388,0.039 -0.043145,0.007 -0.046833,0.011 -0.046833,0.0486 0,0.024 -0.00951,0.0497 -0.022851,0.0617 -0.027351,0.0248 -0.040678,0.0257 -0.067748,0.005 z m 0.2397486,-0.25766 c 0.068616,-0.0342 0.094442,-0.0787 0.093971,-0.16205 -2.531e-4,-0.0458 -0.00801,-0.0835 -0.02139,-0.10384 -0.02212,-0.0336 -0.1314526,-0.0924 -0.1842723,-0.099 l -0.031204,-0.004 -0.00345,0.18644 c -0.00173,0.10248 -4.285e-4,0.19395 0.00303,0.20315 0.00801,0.0209 0.081017,0.009 0.1434291,-0.0209 z m -0.2643369,-0.71073 c 0.00214,-0.12004 -8.27e-4,-0.18244 -0.010156,-0.18806 -0.022506,-0.0139 -0.148222,0.0275 -0.1799729,0.059 -0.045825,0.0458 -0.072798,0.11224 -0.064156,0.15822 0.010247,0.0545 0.075461,0.11357 0.1509005,0.13647 0.103157,0.0315 0.099463,0.0373 0.1033924,-0.16573 z"
       id="path5672"
       inkscape:connector-curvature="0" />
  </g>
</svg>
